<svg xmlns="http://www.w3.org/2000/svg" viewBox="0 0 366.73 574.7"><path d="M192.08 156.26V55.43L96.08 0 6.58 51.66 0 55.43v413.4L176.81 570.9l6.59 3.8 183.34-105.87V257.06zM17.51 75.67L87.31 116v302.41l87.31 50.38v80.62L17.51 458.72zm174.57 282.21v-80.59l69.81 40.28v80.62zm-8.72 15.19l69.77 40.28-69.8 40.28-69.75-40.27zm-8.78-15.19l-69.81 40.3V116l69.81-40.28zm17.5 110.91l79.7-46 7.61-4.38V317.57l69.81-40.28v181.43l-157.12 90.72zm78.6-166.38l-78.6-45.34v-80.59l148.4 85.65zM96.08 100.79l-69.8-40.28 69.8-40.31 69.81 40.31z" fill="#231f20"/></svg>