<?xml version="1.0" standalone="no"?>
<!DOCTYPE svg PUBLIC "-//W3C//DTD SVG 20010904//EN"
 "http://www.w3.org/TR/2001/REC-SVG-20010904/DTD/svg10.dtd">
<svg version="1.0" xmlns="http://www.w3.org/2000/svg"
 width="1150.000000pt" height="1150.000000pt" viewBox="0 0 1150.000000 1150.000000"
 preserveAspectRatio="xMidYMid meet">
<metadata>
Created by potrace 1.11, written by Peter Selinger 2001-2013
</metadata>
<g transform="translate(0.000000,1150.000000) scale(0.100000,-0.100000)"
fill="#000000" stroke="none">
<path d="M3978 11488 c-7 -7 -31 -23 -53 -35 -22 -11 -56 -30 -75 -41 -19 -12
-73 -42 -120 -68 -47 -26 -87 -50 -90 -53 -3 -3 -18 -13 -35 -21 -16 -8 -53
-29 -82 -47 -29 -18 -54 -33 -57 -33 -3 0 -39 -20 -79 -45 -41 -25 -79 -45
-85 -45 -6 0 -12 -4 -14 -8 -1 -4 -54 -37 -116 -72 -62 -36 -121 -69 -130 -75
-10 -5 -65 -37 -122 -70 -58 -33 -114 -65 -125 -72 -11 -7 -31 -18 -45 -25
-14 -6 -47 -26 -75 -43 -27 -18 -104 -63 -170 -100 -66 -37 -162 -92 -212
-122 -51 -30 -95 -53 -99 -53 -4 1 -10 -2 -13 -7 -8 -11 -61 -43 -84 -50 -16
-5 -17 -209 -15 -4146 l3 -4141 65 -38 c36 -21 72 -41 80 -45 8 -3 34 -19 57
-35 23 -15 44 -28 48 -28 5 0 271 -152 315 -180 8 -5 51 -30 95 -55 44 -25 87
-50 95 -55 8 -6 71 -42 140 -81 69 -39 139 -79 155 -89 43 -25 547 -316 587
-339 31 -17 61 -35 221 -127 34 -20 82 -48 107 -62 25 -14 95 -54 155 -90 61
-36 126 -74 145 -84 19 -11 44 -25 55 -31 11 -7 55 -32 98 -57 43 -25 86 -49
95 -55 20 -12 111 -64 162 -93 19 -11 91 -52 160 -92 69 -40 139 -80 155 -90
56 -32 286 -165 318 -184 18 -10 51 -29 74 -42 23 -13 93 -54 155 -91 62 -36
120 -66 129 -65 8 0 70 32 137 71 67 39 126 71 131 71 5 0 11 4 13 8 2 5 28
22 58 39 85 47 125 70 169 97 22 15 43 26 46 26 2 0 34 18 70 40 36 22 70 40
75 40 6 0 10 4 10 8 0 4 15 15 33 23 30 15 77 41 311 177 49 29 93 52 97 52 5
0 9 4 9 9 0 5 8 11 18 14 9 3 44 22 77 41 33 20 78 46 100 57 22 12 43 27 47
33 4 6 8 7 8 3 0 -4 20 6 45 23 25 17 45 27 45 23 0 -4 4 -3 8 2 4 6 18 16 31
23 38 22 69 40 425 246 186 108 340 196 342 196 1 0 39 23 84 50 45 28 83 50
85 50 2 0 38 20 79 45 42 25 81 45 86 45 6 0 10 5 10 10 0 6 5 10 11 10 6 0
49 23 97 51 48 29 101 60 119 70 17 10 120 69 230 132 109 63 214 124 233 135
102 58 284 164 305 178 l25 16 0 2118 0 2118 -102 58 c-133 76 -100 57 -389
224 -138 80 -263 152 -277 160 -15 8 -51 30 -80 48 -29 17 -54 32 -56 32 -3 0
-37 19 -78 43 -40 24 -93 55 -118 69 -25 14 -83 47 -130 74 -47 27 -86 52 -88
56 -2 4 -9 8 -16 8 -8 0 -25 9 -40 21 -14 11 -26 17 -26 13 0 -4 -8 -1 -17 7
-10 8 -29 20 -43 28 -14 8 -90 52 -169 98 -79 46 -148 83 -153 83 -4 0 -8 4
-8 8 0 4 -12 13 -27 19 -32 14 -105 56 -145 84 -14 11 -29 19 -33 19 -4 0 -67
36 -142 80 -74 44 -137 80 -139 80 -2 0 -32 17 -66 38 -35 21 -70 41 -78 45
-8 4 -28 16 -45 26 -16 11 -46 28 -65 38 -88 47 -345 199 -348 205 -2 5 -8 8
-13 8 -8 0 -98 50 -217 121 -15 9 -49 28 -77 43 -27 16 -54 32 -60 36 -5 4
-30 19 -55 32 -25 14 -63 36 -85 48 -22 13 -52 30 -67 37 -15 8 -31 20 -35 26
-4 7 -8 462 -9 1012 -1 550 -2 1002 -3 1005 0 3 -18 14 -38 25 -21 11 -57 32
-80 47 -23 15 -44 28 -47 28 -3 0 -29 14 -58 31 -29 18 -73 43 -98 57 -25 14
-58 33 -75 43 -30 18 -135 79 -224 131 -25 14 -68 38 -96 53 -27 15 -57 33
-66 41 -8 8 -18 14 -21 14 -6 0 -290 162 -345 196 -13 8 -24 13 -25 12 -2 -1
-24 12 -50 30 -26 18 -49 32 -51 32 -3 0 -51 27 -107 60 -56 33 -106 60 -111
60 -5 0 -9 5 -9 10 0 6 -5 10 -10 10 -6 0 -48 23 -94 50 -46 28 -86 50 -89 50
-3 0 -23 12 -44 26 -21 14 -47 30 -58 35 -11 5 -42 23 -70 39 -58 34 -59 34
-77 18z m126 -450 c50 -28 93 -54 96 -57 3 -3 21 -14 40 -23 50 -25 94 -52 98
-60 2 -5 8 -8 13 -8 8 0 143 -75 199 -111 8 -5 69 -40 135 -77 66 -38 224
-129 350 -202 127 -73 244 -141 261 -151 69 -38 79 -44 92 -56 7 -7 9 -13 3
-13 -6 0 -43 -19 -83 -43 -40 -24 -80 -46 -88 -50 -8 -4 -28 -15 -45 -25 -16
-11 -86 -51 -155 -91 -69 -39 -132 -75 -140 -80 -76 -46 -193 -111 -200 -111
-6 0 -10 -4 -10 -10 0 -5 -4 -10 -9 -10 -5 0 -50 -25 -100 -55 -51 -30 -94
-55 -97 -55 -2 0 -21 -11 -42 -23 -20 -13 -57 -35 -82 -49 -25 -14 -96 -55
-159 -92 -62 -36 -116 -66 -120 -66 -3 0 -17 -9 -31 -19 -23 -18 -26 -19 -55
-3 -16 9 -31 20 -33 25 -2 4 -8 7 -12 7 -5 0 -59 29 -120 65 -61 36 -130 76
-153 89 -49 27 -224 129 -282 163 -22 13 -55 31 -72 40 -18 9 -33 20 -33 25 0
4 -6 8 -14 8 -8 0 -51 23 -96 50 -45 28 -83 50 -85 50 -2 0 -38 20 -79 45 -42
25 -81 45 -86 45 -6 0 -10 5 -10 10 0 6 -6 10 -14 10 -7 0 -19 7 -26 15 -7 8
-16 12 -21 9 -5 -3 -9 0 -9 5 0 6 -4 11 -9 11 -5 0 -55 26 -111 59 l-101 59
48 29 c50 32 94 58 153 91 53 30 214 123 314 180 49 29 91 52 93 52 3 0 17 8
31 19 15 10 47 29 72 43 25 14 101 58 170 98 154 89 195 112 240 136 19 11 37
21 40 24 14 15 221 130 234 130 5 0 50 -23 100 -52z m-1476 -1165 c103 -60
189 -111 190 -115 2 -5 9 -8 16 -8 8 0 25 -9 39 -20 15 -12 29 -21 32 -20 3 0
15 -6 28 -14 22 -13 121 -71 185 -108 18 -10 93 -53 165 -95 73 -42 146 -83
162 -92 17 -9 32 -19 33 -23 2 -5 8 -8 12 -8 13 0 134 -72 138 -82 2 -4 12 -8
22 -8 10 0 21 -4 24 -9 4 -5 37 -26 74 -47 37 -20 70 -42 73 -47 4 -6 7 -1340
7 -2966 1 -1626 1 -2985 2 -3021 l0 -65 66 -38 c36 -20 70 -37 75 -37 5 0 9
-4 9 -10 0 -5 5 -10 10 -10 6 0 27 -11 48 -23 20 -13 57 -35 82 -49 77 -43
109 -62 285 -163 479 -277 668 -385 675 -385 5 0 10 -4 12 -8 2 -4 50 -34 108
-67 58 -33 113 -64 122 -70 9 -5 41 -23 70 -39 29 -15 60 -34 68 -40 8 -7 32
-21 53 -31 21 -11 44 -26 50 -34 9 -11 12 -215 12 -811 0 -705 -2 -797 -15
-792 -8 3 -67 36 -130 72 -63 37 -135 78 -160 92 -25 14 -142 81 -260 150
-338 196 -800 463 -855 493 -27 16 -66 39 -85 52 -19 12 -38 23 -42 23 -4 0
-32 16 -62 35 -30 19 -60 35 -66 35 -5 0 -10 5 -10 10 0 6 -3 9 -7 8 -5 -1
-19 5 -33 14 -55 35 -152 88 -161 88 -5 0 -9 5 -9 10 0 6 -4 10 -9 10 -7 0
-142 76 -231 130 -8 5 -55 32 -105 60 -49 28 -97 55 -105 60 -8 5 -30 17 -47
26 -18 9 -33 21 -33 27 0 6 -3 8 -6 5 -5 -5 -190 97 -274 150 -14 9 -27 17
-30 17 -3 0 -16 8 -30 17 -55 35 -292 168 -301 168 -5 0 -9 4 -9 8 0 5 -16 16
-35 25 l-35 17 0 3830 c0 2106 2 3830 5 3830 3 0 90 -48 193 -107z m2947
-2714 l-1 -2821 -50 -28 c-28 -15 -69 -39 -92 -54 -23 -14 -44 -26 -47 -26 -3
0 -31 -16 -61 -35 -30 -19 -56 -35 -58 -35 -2 0 -82 -46 -177 -101 -164 -95
-309 -179 -354 -204 -11 -6 -38 -22 -60 -36 -22 -14 -50 -29 -62 -33 -13 -4
-23 -12 -23 -17 0 -5 -3 -8 -7 -7 -5 1 -19 -5 -33 -14 -70 -44 -343 -198 -357
-200 -15 -3 -16 204 -17 2811 l-1 2813 42 29 c23 16 44 29 46 29 3 0 40 20 81
45 42 25 81 45 86 45 6 0 10 4 10 8 0 4 19 18 43 30 39 20 66 35 213 121 33
19 79 45 104 59 25 14 50 28 55 32 6 4 35 21 65 38 30 16 133 75 228 131 96
56 178 101 183 101 5 0 9 4 9 9 0 5 9 13 20 16 11 4 48 23 83 43 104 61 122
71 127 72 3 0 5 -1269 5 -2821z m508 718 c49 -29 105 -62 125 -74 20 -12 46
-26 58 -32 12 -5 66 -36 120 -68 55 -33 106 -62 114 -66 8 -4 29 -15 45 -26
17 -10 47 -28 68 -40 20 -11 53 -30 72 -41 19 -11 52 -30 73 -41 20 -12 49
-29 64 -38 15 -9 78 -45 140 -80 62 -35 115 -68 116 -73 2 -4 8 -8 14 -8 7 0
227 -124 338 -190 58 -35 223 -130 263 -150 26 -14 47 -28 47 -32 0 -5 6 -8
14 -8 7 0 26 -10 42 -22 16 -13 31 -23 34 -22 3 1 14 -4 25 -11 11 -7 81 -48
155 -90 186 -107 194 -111 221 -127 13 -7 26 -15 29 -18 3 -3 21 -13 40 -23
19 -9 58 -31 85 -47 28 -17 57 -34 65 -37 8 -4 17 -9 20 -12 3 -3 14 -11 25
-17 56 -30 91 -50 95 -54 3 -3 21 -13 40 -24 61 -33 124 -68 162 -93 21 -12
40 -23 44 -23 3 0 17 -8 30 -19 l24 -19 -183 -105 c-100 -57 -207 -119 -237
-136 -30 -18 -62 -36 -70 -41 -26 -17 -164 -96 -180 -103 -8 -4 -24 -13 -35
-20 -11 -7 -47 -27 -80 -46 -33 -19 -104 -61 -158 -93 -53 -32 -102 -58 -107
-58 -6 0 -10 -4 -10 -10 0 -5 -5 -10 -11 -10 -6 0 -60 -29 -120 -65 -61 -36
-113 -65 -115 -65 -2 0 -22 -12 -44 -26 l-39 -26 -78 45 c-43 24 -94 54 -113
64 -19 11 -59 34 -88 52 -29 17 -55 31 -57 31 -3 0 -36 20 -75 45 -38 25 -70
42 -70 39 0 -4 -7 -1 -15 6 -21 17 -76 49 -97 56 -10 4 -18 9 -18 13 0 4 -16
13 -35 21 -19 8 -35 17 -35 22 0 4 -4 8 -9 8 -8 0 -217 118 -536 305 -77 44
-147 84 -155 88 -8 5 -24 13 -35 20 -11 7 -38 23 -60 35 -22 12 -53 31 -70 41
l-30 18 0 805 0 805 35 -20 c19 -10 75 -42 123 -70z m47 -2044 c19 -11 75 -43
124 -72 49 -28 91 -51 93 -51 2 0 22 -12 46 -27 23 -15 51 -32 62 -38 58 -33
574 -330 595 -343 14 -9 28 -15 33 -14 4 1 7 -3 7 -8 0 -6 4 -10 10 -10 5 0
39 -18 74 -39 35 -22 67 -37 70 -34 3 4 6 2 6 -3 0 -5 16 -18 35 -28 22 -12
35 -27 36 -40 0 -12 1 -373 2 -803 1 -517 -1 -783 -8 -782 -5 0 -23 9 -40 20
-16 10 -37 22 -45 26 -8 4 -69 38 -135 76 -143 83 -176 102 -235 136 -25 13
-48 29 -51 34 -3 5 -10 9 -15 9 -9 0 -123 64 -186 104 -21 13 -40 24 -42 24
-4 0 -145 80 -176 100 -8 5 -35 21 -60 35 -25 14 -67 39 -95 55 -27 16 -59 34
-70 40 -11 6 -33 19 -50 29 -16 10 -48 28 -70 41 -68 38 -110 64 -115 71 -4 6
-5 1599 -1 1606 0 2 38 -19 84 -46 45 -27 98 -58 117 -68z m2933 -3514 c-5 -4
-109 -65 -233 -135 -124 -71 -226 -132 -228 -136 -2 -5 -7 -8 -12 -8 -5 0 -74
-38 -155 -85 -80 -47 -165 -96 -188 -109 -23 -13 -86 -49 -139 -80 -53 -31
-102 -56 -107 -56 -6 0 -11 -4 -11 -9 0 -5 -8 -11 -17 -15 -10 -3 -33 -15 -52
-26 -91 -56 -294 -170 -302 -170 -5 0 -9 -4 -9 -10 0 -5 -11 -12 -25 -16 -14
-3 -25 -10 -25 -15 0 -5 -4 -9 -10 -9 -5 0 -44 -20 -86 -45 -41 -25 -79 -45
-84 -45 -5 0 -15 -6 -22 -13 -12 -11 -160 -98 -308 -180 -30 -17 -56 -34 -58
-39 -2 -4 -8 -8 -13 -8 -5 0 -64 -32 -132 -71 -192 -113 -220 -129 -247 -142
-14 -6 -31 -17 -38 -24 -7 -7 -18 -13 -24 -13 -6 0 -19 -6 -27 -14 -9 -7 -41
-27 -71 -43 -45 -25 -116 -66 -230 -133 -106 -62 -141 -81 -147 -81 -4 0 -15
-6 -23 -13 -15 -13 -106 -66 -112 -66 -5 0 -3 1608 2 1612 8 7 152 91 185 108
17 9 48 27 69 39 22 12 204 117 405 233 201 116 377 218 391 227 14 8 28 14
33 13 4 -1 7 2 7 6 0 4 22 19 50 33 27 13 50 27 50 32 0 4 5 7 11 7 6 0 49 23
97 51 48 29 105 62 127 74 22 13 72 41 110 64 39 22 100 57 138 78 l67 37 1
46 c0 25 1 480 1 1012 l1 967 46 23 c25 13 48 26 51 29 3 4 28 19 55 33 28 15
64 35 80 45 161 95 278 161 285 161 6 0 10 5 10 10 0 6 4 10 10 10 8 0 256
140 300 170 8 6 24 15 35 20 11 5 43 23 70 40 28 16 62 35 78 42 15 7 27 16
27 20 0 4 4 8 10 8 5 0 44 21 87 46 43 25 87 50 98 55 11 5 49 27 85 49 l65
39 3 -1811 c1 -997 -1 -1815 -5 -1819z m-3154 1624 c84 -49 178 -102 209 -120
31 -17 63 -36 69 -42 7 -6 23 -16 35 -21 13 -5 46 -23 73 -39 28 -17 70 -42
95 -56 25 -14 72 -41 105 -61 33 -19 68 -38 78 -41 9 -3 17 -9 17 -13 0 -4 8
-10 18 -13 9 -3 42 -21 73 -39 31 -18 111 -64 178 -103 67 -38 130 -75 139
-80 9 -6 45 -26 80 -45 61 -34 76 -50 48 -50 -8 0 -16 -3 -18 -8 -1 -4 -73
-47 -158 -97 -85 -49 -239 -137 -343 -197 -103 -59 -192 -108 -197 -108 -6 0
-10 -4 -10 -9 0 -5 -8 -11 -17 -14 -25 -8 -97 -50 -101 -59 -2 -5 -8 -8 -13
-8 -5 0 -54 -27 -110 -60 -55 -33 -105 -60 -110 -60 -5 0 -9 -4 -9 -10 0 -5
-5 -10 -11 -10 -6 0 -64 -31 -129 -70 -65 -38 -123 -70 -129 -70 -6 0 -11 -5
-11 -11 0 -10 -50 14 -82 40 -10 8 -18 11 -18 6 0 -4 -6 -3 -12 3 -7 5 -107
65 -223 131 -115 67 -217 126 -225 131 -8 5 -37 22 -65 38 -107 61 -133 76
-213 123 -45 27 -84 49 -87 49 -2 0 -40 23 -85 50 -45 28 -83 50 -85 50 -6 0
-275 157 -290 170 -16 13 20 38 205 138 36 19 72 40 80 47 8 6 42 27 75 45 33
19 152 87 264 152 112 65 207 118 212 118 5 0 9 5 9 10 0 6 5 10 10 10 10 0
375 207 460 261 25 16 50 29 56 29 6 0 80 -39 163 -87z"/>
</g>
</svg>
