<?xml version="1.0" standalone="no"?>
<!DOCTYPE svg PUBLIC "-//W3C//DTD SVG 20010904//EN"
 "http://www.w3.org/TR/2001/REC-SVG-20010904/DTD/svg10.dtd">
<svg version="1.0" xmlns="http://www.w3.org/2000/svg"
 width="1800.000000pt" height="1800.000000pt" viewBox="0 0 1800.000000 1800.000000"
 preserveAspectRatio="xMidYMid meet">
<metadata>
Created by potrace 1.11, written by Peter Selinger 2001-2013
</metadata>
<g transform="translate(0.000000,1800.000000) scale(0.100000,-0.100000)"
fill="#000000" stroke="none">
<path d="M0 9000 l0 -9000 9000 0 9000 0 0 9000 0 9000 -9000 0 -9000 0 0
-9000z m8317 4584 l843 -487 2 -891 3 -891 1535 -886 1535 -886 0 -1874 0
-1874 -1615 -932 -1614 -932 -57 32 c-32 17 -760 437 -1618 932 l-1560 900 -1
3652 0 3651 838 485 c460 267 844 485 851 486 8 1 394 -218 858 -485z"/>
<path d="M6847 13359 c-530 -306 -606 -353 -590 -364 28 -19 1201 -695 1207
-695 4 0 1217 698 1224 704 3 4 -1215 706 -1225 706 -4 0 -282 -158 -616 -351z"/>
<path d="M6082 9354 l3 -3377 1375 -793 c756 -437 1378 -794 1382 -794 5 0 7
318 6 706 l-3 706 -767 441 -767 442 -1 2670 0 2670 -607 350 c-333 193 -610
352 -614 353 -5 2 -8 -1513 -7 -3374z"/>
<path d="M8228 12377 l-608 -351 0 -2488 0 -2487 228 131 c125 72 400 232 612
354 l385 222 3 2486 c1 1367 -1 2486 -5 2485 -5 0 -281 -158 -615 -352z"/>
<path d="M9162 10243 l3 -707 689 -398 690 -397 66 37 c351 197 1157 668 1152
674 -10 9 -2590 1498 -2597 1498 -3 0 -4 -318 -3 -707z"/>
<path d="M9162 8464 l3 -707 570 -329 c314 -181 589 -340 613 -354 l42 -25 0
709 0 709 -609 352 c-334 193 -611 351 -615 351 -3 0 -5 -318 -4 -706z"/>
<path d="M11310 8820 l-605 -350 -5 -892 -5 -892 -765 -442 -765 -442 -3 -710
-2 -711 162 94 c90 52 712 411 1383 798 l1220 705 3 1596 c1 878 -1 1596 -5
1596 -5 0 -280 -158 -613 -350z"/>
<path d="M8405 7142 c-330 -191 -606 -351 -613 -355 -9 -6 185 -123 595 -360
334 -192 613 -350 618 -350 15 0 1215 694 1215 703 0 3 -264 159 -587 345
-324 186 -597 344 -608 351 -18 11 -86 -26 -620 -334z"/>
</g>
</svg>
