<svg width="2443" height="800" viewBox="0 0 2443 800" fill="none" xmlns="http://www.w3.org/2000/svg">
<path d="M937.757 697.527C846.89 638.992 723.572 628.72 524.695 683.897C312.677 733.72 241.987 765.658 149.152 701.544C113.486 670.048 100.699 619.337 110.247 546.29C132.393 427.212 192.241 312.618 298.547 185.506C357.882 119.383 412.924 62.6365 485.601 39.8496C541.304 25.5547 536.096 69.3307 529.356 75.5913C522.244 75.5913 510.296 76.7116 501.062 82.7372C493.568 88.5492 472.998 107.316 471.893 132.56C470.299 171.205 510.29 163.162 527.54 141.944C546.133 118.033 573.611 72.2458 551.996 29.5718C542.937 14.3825 527.283 3.88498 507.848 0.310502C441.297 -3.49292 379.319 28.2318 322.116 63.305C197.018 150.207 96.9476 270.622 40.3237 402.429C7.68018 481.956 -21.8436 595.875 22.4085 688.595C56.6454 752.93 127.717 787.102 212.512 779.956C271.984 773.708 343.898 754.486 392.265 742.881C440.635 731.254 688.217 646.15 769.567 794.273C769.567 794.273 796.618 741.76 864.222 740.64C919.802 735.512 999.985 756.73 1058.37 799.615C1038.92 770.359 983.767 727.243 937.757 697.527V697.527Z" fill="#323544"/>
<path d="M549.939 200.472C503.633 170.091 410.562 228.174 336.017 327.804C267.848 417.173 238.413 521.04 270.449 569.071C318.099 625.588 406.563 543.381 444.182 499.38L449.036 494.236C474.619 466.757 494.381 433.693 513.514 401.965C513.514 401.965 531.096 372.923 531.936 371.58C542.802 369.578 555.892 366.449 570.641 362.203C570.431 362.869 514.21 457.368 519.945 504.273C521.731 518.583 520.37 570.857 571.404 586.715C639.426 598.116 693.743 545.387 741.661 498.473C741.661 498.473 749.826 490.662 754.445 486.202C753.276 490.878 751.752 497.121 751.752 497.121C731.838 566.376 758.682 580.909 775.473 586.269C826.221 601.025 886.847 527.298 887.045 527.298C885.47 550.521 880.876 569.731 905.357 585.149C928.462 593.421 951.847 580.808 969.625 568.967C1033.65 523.845 1085.23 453.217 1126.89 392.17H1100.32C1100 392.17 1034.74 486.76 992.366 507.319C992.299 507.319 984.585 511.278 980.144 508.146C974.64 503.455 976.81 493.696 980.208 486.785C980.421 486.336 1143.83 202.914 1143.83 202.914H1066.68C1066.68 202.914 1058.25 216.55 1057.56 217.444C1057.05 216.999 1055.81 214.654 1054.95 213.531C1007.15 147.408 898.901 249.117 817.403 367.066C786.026 412.42 746.078 463.485 704.655 500.344C704.655 500.344 643.288 556.596 617.07 516.181C607.485 499.199 610.434 474.373 615.84 458.07C646.368 371.165 698.972 292.298 758.834 244.712C775.73 231.541 794.1 227.731 803.211 233.317C811.899 238.464 813.3 251.187 807.805 259.902C793.865 259.456 782.693 263.693 773.614 273.076C755.727 291.843 749.512 309.941 755.199 326.922C782.827 366.239 837.928 288.494 835.263 241.135C834.31 224.154 825.254 208.073 811.731 200.246C791.581 188.189 760.843 191.312 740.95 200.924C714.316 210.973 672.164 246.043 647.558 273.302C616.581 307.487 563.453 345.46 546.841 341.208C552.271 326.684 597.146 234.871 549.939 200.472V200.472ZM921.92 336.297C936.929 315.524 980.614 259.895 991.264 250.515C1027.08 219.004 1041.4 232.869 1042.64 242.692C1009.21 302.56 969.756 371.147 932.662 432.807C932.738 432.588 921.053 450.454 921.053 450.454C904.671 475.466 888.175 496.916 861.267 511.88C857.43 513.006 851.105 513.455 846.896 510.314C841.829 506.962 839.829 501.376 840.4 495.567C842.015 476.361 861.569 417.618 921.92 336.297V336.297ZM502.186 372.261C502.186 372.261 501.511 374.279 501.182 374.938C501.096 374.938 467.54 429.663 467.54 429.663C447.29 456.699 422.006 490.665 390.4 506.965C381.032 510.091 368.08 512.108 361.481 503.848C347.491 487.09 354.701 463.854 360.559 445.094L362.635 438.391C379.429 392.823 406.075 352.603 432.015 315.295C432.339 315.076 433.065 314.853 433.327 314.853C433.392 315.076 433.495 315.076 433.538 315.524C449.814 346.794 480.333 361.309 503.157 368.021C503.294 368.021 503.443 368.244 503.443 368.693C503.447 369.358 503.074 370.259 502.186 372.261V372.261ZM533.975 307.707C533.825 308.152 519.03 342.108 519.03 342.108C516.89 343.894 513.508 343.003 509.631 342.108L502.989 340.985C482.131 334.511 466.398 320.659 461.548 304.129C454.86 271.959 482.342 246.715 494.448 237.56C506.066 229.511 524.127 225.268 534.616 233.537C541.084 241.135 543.535 250.961 543.535 261.69C543.538 276.205 539.057 292.511 533.975 307.707ZM1509.37 411.355C1501.93 395.274 1484.27 384.996 1465.45 386.11C1404.33 391.699 1344.55 441.962 1313.15 514.114C1296.68 551.202 1287.69 581.803 1281.8 630.503C1300.81 608.616 1339.57 572.652 1383.57 552.991C1383.57 552.991 1389.55 506.303 1420.08 464.749C1431.63 447.542 1454.74 419.843 1480.7 427.212C1503.38 434.81 1495.4 497.588 1465.26 558.339C1442.96 603.024 1408.83 647.716 1374.3 678.537C1343.78 704.45 1298.61 735.726 1259.09 711.602C1234.2 696.864 1221.51 666.025 1224.19 626.263C1236.08 513.452 1287.43 417.389 1360.92 307.927C1436.7 206.281 1520.23 101.956 1632.75 46.3209C1655.7 34.7061 1676.96 32.0261 1695.33 39.175C1695.33 39.175 1589.7 97.2581 1539.35 204.715C1526.54 231.974 1508.73 268.824 1526.67 301.443C1536.04 318.418 1552.68 319.761 1566.09 318.867C1627.81 304.566 1667.68 246.931 1700.26 194.215C1719.15 154.227 1735.94 114.462 1735.94 70.2281C1735.94 64.8679 1735.66 57.722 1735.21 52.3557C1764.69 36.7239 1825.16 64.4192 1825.16 64.4192C1872.41 80.0633 1973.02 157.139 2006.95 171.876C2023.51 152.667 2050.71 123.629 2066.03 109.105L2043.86 95.4754C2008.35 73.8057 1970.83 53.2501 1933.9 32.9235C1850.02 -12.8671 1781.74 3.21348 1746.99 15.7257C1733.34 20.6372 1720.86 24.8832 1720.86 24.8832C1695.07 -3.26393 1652.77 -0.589942 1621.61 7.01079C1509.54 39.1781 1405.49 117.588 1293.94 253.641C1211.92 360.204 1161.05 452.246 1133.93 543.165C1113.03 604.373 1106.68 694.401 1157.7 747.795C1201.07 793.134 1258.58 783.311 1299.19 767.011C1387.19 723.671 1466.27 630.286 1505.68 522.829C1515.19 490.887 1525.75 445.762 1509.37 411.355V411.355ZM1711.71 74.7001C1700.06 208.293 1596.22 286.712 1570.53 292.957C1554.95 296.08 1528.39 289.16 1552.11 233.094C1587.03 157.579 1646.67 93.4699 1710.65 60.628C1712.21 66.2141 1712.17 69.7794 1711.71 74.7001V74.7001ZM2327.7 91.672C2271.84 123.4 2213.94 143.946 2143.85 136.8C2124.42 158.699 2105.51 181.26 2088.07 204.489C2186.45 229.511 2290.75 173.885 2348.92 120.945C2410.45 67.5511 2442 0.313599 2442 0.313599C2442 0.313599 2395.88 53.0303 2327.7 91.672ZM1272.07 202.92H1198.79L1157.46 270.076H1230.72L1272.07 202.92Z" fill="#323544"/>
<path d="M2143.55 703.745C2135.67 709.105 2124.61 704.984 2128.74 692.701C2139.05 661.425 2180.04 597.688 2180.04 597.688L2294.19 395.228H2216C2212.28 401.333 2204.33 415.35 2204.33 415.35C2200.72 409.325 2189.9 395.927 2185.45 393.03C2166.34 380.958 2138.32 386.666 2118.98 397.609C2034.92 446.764 1973.59 543.879 1925.21 619.615C1925.21 619.615 1874.29 703.803 1846.03 710.063C1823.97 711.852 1826.24 682.127 1827.2 675.201C1835.73 625.152 1855.54 577.572 1875.5 534.456C1916.11 506.309 1962.44 469.45 2004.55 429.016C2095.94 341.66 2172.98 242.695 2184.24 220.579C2184.24 220.579 2172.05 223.039 2157.66 223.482C2087.35 321.553 1943.48 464.087 1899.87 485.304C1919.19 438.827 2044.03 217.002 2150.26 110.891L2166.98 94.8008C2192.83 69.5566 2219.62 43.6439 2240.49 39.3978C2242.69 39.175 2245.53 39.3978 2247.98 44.5444C2248.91 64.1994 2241.6 78.7233 2233.2 95.2526L2221.44 119.383C2221.44 119.383 2238.1 116.254 2249.05 112.67C2261.74 88.7782 2275.81 61.962 2270.62 30.0236C2268.89 19.7458 2261.45 11.9284 2251.73 10.1396C2220.04 4.10786 2185.5 27.5572 2157.71 46.5529L2156.59 47.2184C2013.73 159.141 1893.1 320.436 1787.63 540.707C1779.98 546.507 1750.45 553.439 1745.43 550.085C1755.85 528.644 1768.96 499.819 1775.52 468.543C1776.65 459.602 1777.71 450.451 1777.71 441.516C1777.71 422.289 1773.1 404.199 1755.87 391.696C1735.68 381.641 1710.72 386.336 1693.89 393.925C1618.5 425.201 1562.15 502.502 1521.49 566.162C1499.62 606.608 1477.82 649.926 1471.78 699.529C1467.53 738.394 1476.18 763.418 1498.28 775.93C1521.01 787.539 1549.61 775.472 1560.85 769.67C1637.22 729.456 1690.59 648.815 1732.65 575.091C1734.33 574.871 1757.29 574.206 1774.67 569.731C1774.9 569.731 1774.99 569.731 1775.38 569.963C1774.38 573.302 1765.41 600.118 1765.41 600.118C1738.75 678.299 1726.42 731.474 1751.6 762.969C1787.59 807.426 1847.16 761.413 1895.63 700.637C1885.23 773.461 1922.97 784.862 1951.74 779.282C1984.79 770.35 2021.62 735.045 2038.71 716.956C2033.22 738.174 2034.71 776.159 2064.78 779.95C2085.38 783.76 2100.81 772.551 2118.65 762.942C2182.66 728.088 2259.28 611.95 2279.17 578.372H2253.09C2224.8 621.116 2188.82 677.148 2143.55 703.745V703.745ZM1569.02 695.967C1564.96 689.932 1563.61 683.339 1563.48 676.208C1562.7 632.402 1609.83 553.958 1643.09 511.223H1643.16C1657.1 541.748 1688.67 561.37 1707.73 569.639C1684.06 622.365 1602.88 735.283 1569.02 695.967V695.967ZM1721.09 546.068C1718.83 547.643 1679.03 534.23 1671.33 497.371C1664.8 465.637 1686.66 440.842 1707.8 428.345C1716.87 421.19 1730.54 418.742 1740.57 422.301C1749.88 428.568 1752.4 439.746 1752.4 451.788C1752.4 459.175 1751.42 466.764 1750.56 473.687L1750.37 475.256C1743.7 500.023 1733.86 523.824 1721.09 546.068V546.068ZM2040.37 681.895C2040.34 681.895 2032.81 688.595 2032.81 688.595C2022.08 698.198 2011.03 708.473 1997.69 703.333C1994 701.996 1991.41 697.084 1990.79 693.275C1990.18 665.796 2002.55 640.335 2014.55 615.539L2017.63 609.059C2052.15 551.425 2092.27 483.513 2151.2 436.382C2161.13 429.218 2171.9 423.198 2183.28 427.893C2185.89 430.347 2188.94 434.593 2188.94 438.833C2188.94 440.179 2187.74 443.751 2187.05 444.865C2170.6 471.461 2154.92 499.38 2139.68 526.187C2109.9 579.132 2079 633.855 2040.37 681.895V681.895Z" fill="#323544"/>
</svg>
