<svg width="1874" height="800" viewBox="0 0 1874 800" fill="none" xmlns="http://www.w3.org/2000/svg">
<path fill-rule="evenodd" clip-rule="evenodd" d="M543.549 796.655H340.141V506.552H208.416V796.655H0V48.035H208.416V327.309H340.141V48.035H543.549V796.655V796.655ZM1476.42 800C1684.83 800 1854.9 626.601 1854.9 415.676C1854.9 201.428 1684.85 35.5338 1476.42 35.5338C1265.5 35.5338 1158.79 188.916 1132.95 251.444C1132.95 158.906 1040.41 48.035 932.869 48.035H585.235V796.655H908.703C1040.41 796.655 1132.95 684.111 1132.95 585.741C1162.12 646.596 1265.5 800 1476.42 800ZM882.854 495.701C912.863 495.701 937.04 524.875 937.04 558.229C937.04 593.246 912.852 622.419 882.854 622.419H779.477V495.701H882.854ZM882.854 214.765C912.863 214.765 937.04 243.939 937.04 277.293C937.04 310.648 912.852 339.822 882.854 339.822H779.477V214.765H882.854V214.765ZM1019.57 415.676C1043.75 414.014 1082.94 386.503 1097.94 369.831C1092.09 389.837 1092.09 453.191 1097.94 473.208C1081.26 449.02 1043.75 419.847 1019.57 415.676V415.676ZM1286.33 415.676C1286.33 310.637 1371.38 225.605 1476.41 225.605C1581.44 225.605 1666.47 310.637 1666.47 415.676C1666.47 521.551 1581.44 606.595 1476.41 606.595C1371.38 606.595 1286.33 521.551 1286.33 415.676V415.676ZM1476.42 565.746C1557.28 565.746 1625.65 499.047 1625.65 415.676C1625.65 332.316 1557.28 266.454 1476.42 266.454C1393.05 266.454 1326.35 332.316 1326.35 415.676C1326.27 435.407 1330.09 454.958 1337.6 473.203C1345.12 491.448 1356.17 508.024 1370.12 521.976C1384.07 535.928 1400.65 546.979 1418.89 554.491C1437.14 562.004 1456.69 565.829 1476.42 565.746V565.746ZM1767.24 58.0601C1767.24 30.5707 1787.94 9.76103 1814.61 9.76103C1840.86 9.76103 1861.66 30.5707 1861.66 58.0601C1861.66 86.0778 1840.85 106.744 1814.61 106.744C1787.94 106.744 1767.24 86.0778 1767.24 58.0601ZM1814.61 116.373C1846.27 116.373 1873.33 91.7562 1873.33 58.0601C1873.33 24.6282 1846.27 0 1814.61 0C1782.59 0 1755.48 24.6282 1755.48 58.0601C1755.48 91.7452 1782.59 116.373 1814.61 116.373ZM1802.25 62.6491H1813.96L1831.67 91.7452H1843.08L1824 62.1979C1833.8 60.9984 1841.41 55.7602 1841.41 43.6992C1841.41 30.5707 1833.54 24.6282 1817.66 24.6282H1792.13V91.7452H1802.25V62.6491ZM1802.25 54.0435V33.3219H1816.1C1823.21 33.3219 1830.76 34.7855 1830.76 43.1379C1830.76 53.4712 1823.04 54.0435 1814.42 54.0435H1802.25Z" fill="#323544"/>
</svg>
