<svg width="2560" height="800" viewBox="0 0 2560 800" fill="none" xmlns="http://www.w3.org/2000/svg">
<path d="M203.744 368.65L287.701 558.014H181.914L118.662 380.416L85.0778 558.014H0L71.6462 179.837H156.724L125.38 346.794L250.763 179.837H359.351L203.744 368.65Z" fill="#323544"/>
<path d="M460.666 565.299C362.712 565.299 317.933 511.519 317.933 426.359C317.933 290.776 414.769 172.552 541.829 172.552C635.307 172.552 683.444 223.542 683.444 312.62C683.444 458.853 582.689 565.299 460.666 565.299V565.299ZM527.835 252.113C453.95 252.113 409.732 332.235 409.732 411.224C409.732 459.405 431.565 485.186 473.537 485.186C543.508 485.186 592.763 408.434 592.763 322.703C592.763 281.259 572.614 252.113 527.835 252.113Z" fill="#323544"/>
<path d="M939.238 356.325V356.882C967.226 365.852 984.022 393.856 984.022 425.231C984.022 498.626 917.971 559.143 811.617 559.143C785.874 559.143 744.453 558.014 690.717 558.014L762.362 180.408C796.505 178.718 849.123 177.603 890.544 177.603C961.633 177.603 1005.85 201.132 1005.85 256.593C1005.85 306.464 978.98 338.957 939.238 356.325V356.325ZM842.407 396.656C829.531 396.656 813.857 396.656 806.023 397.227L789.789 486.309C796.505 487.423 809.938 487.98 820.017 487.98C867.593 487.98 892.223 460.538 892.223 430.835C892.223 408.434 875.428 396.656 842.407 396.656V396.656ZM868.711 247.637C856.957 247.637 845.765 248.199 835.129 248.751L818.899 331.678C826.172 332.23 832.889 332.23 840.728 332.23C885.507 332.23 912.373 310.387 912.373 276.765C912.373 258.278 900.619 247.637 868.711 247.637Z" fill="#323544"/>
<path d="M1101 558.014H1015.92L1087.56 179.836H1172.64L1101 558.014Z" fill="#323544"/>
<path d="M1372.47 558.014H1175.44L1247.09 179.836H1332.16L1275.07 480.701H1387.02L1372.47 558.014Z" fill="#323544"/>
<path d="M1683.86 558.033H1599.45L1672.75 180.079H1757.16L1683.86 558.033Z" fill="#323544"/>
<path d="M2041.48 377.955H1957.07L2030.37 0.000284395H2114.78L2041.48 377.955Z" fill="#323544"/>
<path d="M1808.24 753.676H1723.83L1850.46 88.9304H1934.86L1808.24 753.676Z" fill="#323544"/>
<path d="M738.16 675.444C734.05 673.953 729.389 673.387 724.908 673.387C713.901 673.387 708.307 678.243 708.307 685.342C708.307 698.596 734.611 703.267 734.611 723.81C734.611 739.312 720.988 754.814 693.566 754.814C687.406 754.814 682.364 754.252 677.698 753.319L681.061 735.951C685.789 737.665 690.778 738.55 695.807 738.569C706.809 738.569 714.082 734.27 714.082 725.867C714.082 712.236 687.968 709.618 687.968 687.398C687.968 671.154 700.839 658.261 726.026 658.261C732.186 658.261 737.223 658.823 741.889 659.761L738.16 675.444Z" fill="#323544"/>
<path d="M806.446 673.206C793.014 673.206 784.062 685.346 780.328 699.534C805.7 698.601 817.639 693.373 817.639 682.728C817.639 676.562 813.353 673.206 806.446 673.206ZM777.902 713.36C777.451 716.451 777.202 719.568 777.155 722.691C777.155 735.398 781.817 738.755 795.806 738.755C804.572 738.755 813.905 736.703 822.115 733.337L822.676 748.839C811.991 752.823 800.677 754.848 789.275 754.818C766.89 754.818 757.187 744.916 757.187 724.001C757.187 686.837 778.829 658.261 808.682 658.261C829.949 658.261 837.232 669.097 837.232 680.114C837.232 701.029 816.145 712.051 777.897 713.36" fill="#323544"/>
<path d="M919.512 678.433C915.032 676.377 909.809 675.072 903.649 675.072C882.006 675.072 872.117 699.353 872.117 718.768C872.117 728.29 875.475 737.069 890.031 737.069C896.747 737.069 903.649 735.579 908.877 733.332L908.315 750.143C901.784 752.752 893.203 754.623 884.432 754.623C859.992 754.623 851.226 741.74 851.226 723.248C851.226 687.779 871.556 658.452 904.957 658.452C912.235 658.452 918.204 659.38 924.174 661.061L919.512 678.433Z" fill="#323544"/>
<path d="M1016.34 708.499C1015.04 714.85 1009.07 746.968 1008.13 752.947H988.917C990.044 747.158 992.465 737.265 998.249 719.892L997.878 719.701C989.297 738.003 975.489 754.999 956.828 754.999C939.291 754.999 933.697 742.487 937.24 723.624L949.365 660.132H968.772L957.58 718.959C955.149 732.213 957.385 737.822 964.667 737.822C979.589 737.822 997.693 704.581 1001.98 682.166L1006.09 660.132H1025.68L1016.34 708.499Z" fill="#323544"/>
<path d="M1102.73 677.5C1087.25 673.016 1069.71 704.019 1064.49 732.399L1060.57 752.948H1040.97L1050.31 704.576C1051.61 698.23 1057.39 666.107 1058.33 660.132H1077.36C1076.05 667.798 1073.63 676.943 1068.59 691.507L1068.96 691.698C1079.22 670.402 1089.86 655.467 1106.84 658.261L1102.73 677.5Z" fill="#323544"/>
<path d="M1159.82 673.206C1146.39 673.206 1137.44 685.346 1133.7 699.534C1159.08 698.601 1171.02 693.373 1171.02 682.728C1171.02 676.562 1166.73 673.206 1159.82 673.206ZM1131.28 713.36C1130.83 716.451 1130.58 719.568 1130.53 722.691C1130.53 735.398 1135.19 738.755 1149.18 738.755C1157.95 738.755 1167.28 736.703 1175.49 733.337L1176.05 748.839C1165.37 752.823 1154.05 754.848 1142.65 754.818C1120.26 754.818 1110.56 744.916 1110.56 724.001C1110.56 686.837 1132.21 658.261 1162.06 658.261C1183.33 658.261 1190.6 669.097 1190.6 680.114C1190.6 701.029 1169.52 712.051 1131.27 713.36" fill="#323544"/>
<path d="M1277.55 783.018C1265.98 794.406 1254.6 800 1243.22 800C1238.56 800 1233.52 799.443 1229.78 798.515L1233.15 780.956C1236.69 782.261 1240.61 782.827 1244.53 782.827C1250.87 782.827 1257.96 779.461 1263.74 773.486C1270.27 766.773 1273.26 758.922 1273.26 746.406C1273.26 721.011 1267.66 690.384 1259.45 660.128H1281.28C1287.07 682.542 1291.36 710.365 1291.36 730.161C1291.36 732.961 1290.79 736.698 1290.24 739.874H1290.43C1304.04 715.412 1315.98 689.827 1329.6 656.395L1347.88 661.623C1322.51 721.201 1300.31 760.417 1277.55 783.013" fill="#323544"/>
<path d="M1403.86 675.253C1384.84 675.253 1372.7 697.106 1372.7 718.392C1372.7 730.533 1377.56 737.631 1390.06 737.631C1407.6 737.631 1421.59 718.587 1421.59 694.306C1421.59 681.985 1416.17 675.258 1403.86 675.258V675.253ZM1387.26 754.814C1362.81 754.814 1352.18 742.673 1352.18 721.573C1352.18 683.666 1376.8 658.261 1406.85 658.261C1432.22 658.261 1442.3 672.268 1442.3 692.064C1442.3 730.161 1415.61 754.814 1387.26 754.814" fill="#323544"/>
<path d="M1542.3 708.499C1541 714.85 1535.03 746.968 1534.09 752.947H1514.87C1516 747.158 1518.42 737.265 1524.21 719.892L1523.83 719.701C1515.25 738.003 1501.45 754.999 1482.78 754.999C1465.25 754.999 1459.65 742.487 1463.19 723.624L1475.33 660.132H1494.73L1483.53 718.959C1481.11 732.213 1483.34 737.822 1490.62 737.822C1505.55 737.822 1523.65 704.581 1527.94 682.166L1532.05 660.132H1551.63L1542.3 708.499Z" fill="#323544"/>
<path d="M1628.69 677.5C1613.2 673.016 1595.66 704.019 1590.43 732.399L1586.52 752.948H1566.93L1576.26 704.576C1577.56 698.23 1583.35 666.107 1584.28 660.132H1603.32C1602.01 667.798 1599.58 676.943 1594.54 691.507L1594.92 691.698C1605.18 670.402 1615.81 655.467 1632.79 658.261L1628.69 677.5Z" fill="#323544"/>
<path d="M1941.39 643.698C1934.3 643.698 1929.26 638.28 1929.26 631.938C1929.26 624.273 1935.6 618.674 1942.69 618.674C1949.78 618.674 1954.63 624.278 1954.63 630.257C1954.63 638.094 1948.47 643.698 1941.39 643.698ZM1928.51 752.948H1908.92L1926.64 660.132H1946.24L1928.51 752.948Z" fill="#323544"/>
<path d="M2017.32 674.134C1992.5 674.134 1982.06 701.215 1982.06 722.696C1982.06 733.337 1985.22 737.822 1990.46 737.822C2006.13 737.822 2023.85 703.647 2027.96 682.547L2029.26 675.82C2025.38 674.708 2021.36 674.141 2017.32 674.134V674.134ZM2040.46 719.33C2039.52 724.001 2035.23 748.091 2034.29 752.947H2015.08C2016.39 745.282 2019.75 734.27 2024.78 718.959L2024.41 718.768C2017.32 732.77 2003.89 754.999 1982.98 754.999C1969.37 754.999 1961.9 746.039 1961.9 726.243C1961.9 691.693 1980 658.637 2020.67 658.637C2024.59 658.637 2027.96 658.818 2032.25 659.38L2040.27 616.626H2060.04L2040.46 719.33Z" fill="#323544"/>
<path d="M2116.95 673.206C2103.53 673.206 2094.56 685.346 2090.84 699.534C2116.21 698.601 2128.15 693.373 2128.15 682.728C2128.15 676.562 2123.86 673.206 2116.95 673.206V673.206ZM2088.41 713.36C2087.96 716.451 2087.71 719.568 2087.66 722.691C2087.66 735.398 2092.32 738.755 2106.32 738.755C2115.08 738.755 2124.42 736.703 2132.63 733.337L2133.18 748.839C2123.3 752.576 2111.92 754.818 2099.79 754.818C2077.4 754.818 2067.7 744.916 2067.7 724.001C2067.7 686.836 2089.34 658.261 2119.19 658.261C2140.47 658.261 2147.74 669.097 2147.74 680.114C2147.74 701.029 2126.66 712.051 2088.41 713.36Z" fill="#323544"/>
<path d="M2237.67 752.948H2218.08L2229.46 694.121C2231.88 680.862 2229.65 675.258 2222.37 675.258C2207.44 675.258 2189.16 708.499 2185.06 730.914L2180.95 752.948H2161.36L2170.69 704.576C2171.99 698.23 2177.78 666.107 2178.71 660.132H2198.12C2196.99 665.922 2194.57 675.825 2188.6 693.188L2188.97 693.374C2197.75 675.077 2211.55 658.08 2230.21 658.08C2247.75 658.08 2253.35 670.592 2249.8 689.455L2237.67 752.948Z" fill="#323544"/>
<path d="M2330.96 675.634H2307.27L2298.68 721.196C2296.25 734.084 2298.13 737.631 2306.52 737.631C2311.55 737.631 2315.28 737.074 2318.83 736.327L2317.34 752.576C2311.39 753.878 2305.33 754.564 2299.24 754.623C2279.84 754.623 2274.42 745.477 2278.72 723.815L2287.86 675.634H2270.32L2273.49 660.132H2290.84L2296.44 630.629L2316.78 626.325L2310.25 660.127H2334.13L2330.96 675.634Z" fill="#323544"/>
<path d="M2374.62 643.698C2367.53 643.698 2362.49 638.28 2362.49 631.938C2362.49 624.273 2368.84 618.674 2375.93 618.674C2383.02 618.674 2387.87 624.278 2387.87 630.257C2387.89 632.015 2387.57 633.76 2386.92 635.391C2386.26 637.023 2385.29 638.508 2384.06 639.759C2382.82 641.01 2381.35 642.003 2379.73 642.679C2378.11 643.355 2376.37 643.702 2374.62 643.698V643.698ZM2361.75 752.948H2342.15L2359.88 660.132H2379.47L2361.75 752.948Z" fill="#323544"/>
<path d="M2456.72 675.634H2433.02L2424.44 721.196C2422.01 734.084 2423.88 737.631 2432.27 737.631C2436.41 737.649 2440.54 737.211 2444.59 736.327L2443.1 752.576C2437.15 753.877 2431.09 754.563 2425 754.623C2405.59 754.623 2400.18 745.477 2404.48 723.815L2413.62 675.634H2396.08L2399.25 660.132H2416.6L2422.2 630.629L2442.53 626.325L2436.01 660.127H2459.89L2456.72 675.634Z" fill="#323544"/>
<path d="M2489.37 783.018C2477.8 794.406 2466.42 800 2455.04 800C2450.37 800 2445.33 799.443 2441.61 798.515L2444.96 780.956C2448.51 782.261 2452.43 782.827 2456.35 782.827C2462.69 782.827 2469.77 779.461 2475.56 773.486C2482.09 766.773 2485.08 758.922 2485.08 746.406C2485.08 721.011 2479.48 690.384 2471.27 660.128H2493.1C2498.89 682.542 2503.17 710.365 2503.17 730.161C2503.17 732.961 2502.61 736.698 2502.05 739.874H2502.24C2515.86 715.412 2527.8 689.827 2541.42 656.395L2559.71 661.623C2534.34 721.201 2512.13 760.417 2489.37 783.013" fill="#323544"/>
</svg>
