<svg width="2871" height="800" viewBox="0 0 2871 800" fill="none" xmlns="http://www.w3.org/2000/svg">
<path fill-rule="evenodd" clip-rule="evenodd" d="M1527.53 780.358H1921.46C1980.33 780.358 2028.63 756.205 2067.87 707.884C2105.6 661.096 2125.23 605.256 2125.23 541.881C2125.23 413.58 1960.72 323.014 1897.3 323.014H1681.47C1664.86 323.014 1651.25 315.464 1640.71 303.403C1630.14 289.807 1624.11 274.723 1624.11 256.6C1624.11 235.47 1630.14 217.363 1640.71 202.263C1652.79 187.179 1667.87 178.126 1685.99 178.126H2090.51V16.6034H1678.43C1604.47 16.6034 1547.09 39.2527 1506.33 83.0169C1470.13 123.773 1452 178.11 1452 243.02C1452 306.41 1470.13 362.267 1506.33 407.519C1547.09 457.329 1595.41 483.017 1654.28 483.017H1903.34C1918.41 483.017 1930.5 487.544 1939.54 499.59C1950.11 511.666 1954.64 526.766 1954.64 543.384C1954.64 563.011 1947.09 581.118 1935.01 596.217C1921.43 609.798 1906.33 617.348 1886.74 617.348H1488.26L1482.23 606.775L1332.8 126.796L1325.25 111.697C1289.02 37.7336 1228.65 1.51926 1145.63 1.51926C1100.35 1.51926 1059.59 12.0766 1023.36 34.7259C985.629 57.3599 961.476 90.5667 947.896 132.842L747.136 778.839L929.773 780.374L1113.91 205.302C1118.44 187.179 1129.01 178.126 1142.59 178.126C1150.14 178.126 1156.17 181.133 1160.7 185.675C1165.23 191.706 1168.25 197.752 1169.75 205.302L1355.4 780.374H1527.53V780.358V780.358ZM169.057 252.074V778.839H0V194.714C0 119.247 18.1225 66.4135 57.3599 34.7259C87.5436 12.0766 132.827 0 196.217 0C247.531 0 291.311 15.0996 330.548 43.7796C369.786 72.4595 395.442 111.697 409.038 160.003L519.216 547.911L537.338 600.744C538.842 611.302 544.888 618.851 550.919 624.867C558.469 630.928 566.003 633.951 575.072 630.928C590.171 629.424 597.721 620.355 597.721 606.775V18.1225H771.305V599.225C771.305 664.135 756.22 712.456 724.518 747.167C694.334 781.877 649.05 800 588.668 800C535.835 800 492.055 789.427 457.345 771.32C415.084 750.19 387.908 716.983 375.831 673.188L249.05 230.943L239.997 202.263C236.974 191.706 230.943 184.156 223.394 176.606C215.844 170.561 206.79 169.057 197.737 170.561C188.683 172.08 182.652 176.607 176.606 185.66C171.644 193.849 169.032 203.246 169.057 212.821V252.074V252.074ZM2870.88 780.358L2674.66 126.796L2667.11 111.697C2630.88 37.7336 2570.51 1.51926 2487.5 1.51926C2442.21 1.51926 2401.46 12.0766 2365.24 34.7259C2327.48 57.3599 2303.36 90.5667 2289.75 132.842L2089 778.839L2271.64 780.374L2455.78 205.302C2460.31 187.179 2470.88 178.126 2484.46 178.126C2492.01 178.126 2498.04 181.133 2502.57 185.675C2507.12 191.706 2510.12 197.752 2511.65 205.302L2697.3 780.374H2870.88V780.358V780.358Z" fill="#323544"/>
</svg>
