<svg width="2723" height="800" viewBox="0 0 2723 800" fill="none" xmlns="http://www.w3.org/2000/svg">
<path fill-rule="evenodd" clip-rule="evenodd" d="M0 0H558.33V800H0V0ZM80.4741 719.464H477.577V80.5671H80.4741V719.464V719.464Z" fill="#949494"/>
<path fill-rule="evenodd" clip-rule="evenodd" d="M929.201 358.926H894.666C849.3 294.844 804.307 231.166 759.375 159.197H759.05V358.926H720.873V80.4431H755.44C800.805 144.076 845.737 207.305 890.25 278.901H891.04V80.4431H929.217V358.926H929.201ZM1019.95 248.704C1031.03 212.093 1042.18 178.286 1052.14 135.306H1052.95C1064.07 178.286 1074.04 212.108 1084.37 248.704H1019.95V248.704ZM1038.2 80.4431L941.984 358.926H983.352L1007.55 282.914H1091.54L1113.41 358.926H1166.75L1078 80.4431H1038.2V80.4431ZM1211.67 358.926V117.798H1138.44V80.4431H1332.56V117.798H1259.4V358.926H1211.67ZM1348.04 80.4431H1395.45V358.926H1348.04V80.4431ZM1542.64 323.864C1492.86 323.864 1475.37 268.97 1475.37 215.656C1475.37 164.357 1495.25 115.412 1542.64 115.412C1589.98 115.412 1609.79 164.357 1609.79 215.656C1609.79 268.97 1592.33 323.864 1542.64 323.864ZM1542.64 363.636C1615.42 363.636 1660.75 298.826 1660.75 215.641C1660.75 137.692 1610.71 75.6401 1542.64 75.6401C1474.64 75.6401 1424.38 137.692 1424.38 215.641C1424.39 298.842 1469.81 363.636 1542.64 363.636ZM1898.24 358.926H1863.66C1818.26 294.844 1773.3 231.166 1728.4 159.197H1728.01V358.926H1689.88V80.4431H1724.46C1769.76 144.076 1814.73 207.305 1859.21 278.901H1860.03V80.4431H1898.25V358.926H1898.24ZM1988.94 248.704C2000.11 212.093 2011.19 178.286 2021.19 135.306H2021.98C2033.12 178.286 2043.04 212.108 2053.36 248.704H1988.94ZM2007.28 80.4431L1911.02 358.926H1952.42L1976.62 282.914H2060.6L2082.47 358.926H2135.75L2047.02 80.4431H2007.28ZM2149.62 80.4431H2197.05V321.509H2291.28V358.926H2149.62V80.4431ZM899.856 591.858V706.79C874.369 716.784 847.705 723.895 820.73 723.895C738.753 723.895 687.051 660.247 687.051 578.286C687.051 502.274 738.753 435.868 822.295 435.868C848.107 435.868 873.982 445.458 889.909 457.373L874.385 490.39C861.68 482.504 841.74 475.733 823.473 475.733C772.591 475.733 737.947 515.924 737.947 579.184C737.947 645.172 777.751 684.123 818.731 684.123C831.405 684.123 842.204 682.604 852.198 677.383V591.858H899.856V591.858ZM1070.6 478.119H990.944V554.456H1068.91V591.858H990.944V681.706H1084.82V719.154H943.177V440.655H1070.6V478.119ZM1217.77 684.107C1167.99 684.107 1150.47 629.26 1150.47 575.915C1150.47 524.647 1170.36 475.718 1217.77 475.718C1265.07 475.718 1284.92 524.647 1284.92 575.915C1284.92 629.26 1267.38 684.107 1217.77 684.107ZM1217.77 723.895C1290.53 723.895 1335.85 659.054 1335.85 575.9C1335.85 497.951 1285.76 435.852 1217.77 435.852C1149.66 435.852 1099.6 497.951 1099.6 575.9C1099.59 659.07 1144.86 723.895 1217.77 723.895V723.895ZM1564.95 591.858V706.79C1539.47 716.784 1512.88 723.895 1485.8 723.895C1403.88 723.895 1352.13 660.247 1352.13 578.286C1352.13 502.274 1403.88 435.868 1487.42 435.868C1513.3 435.868 1539.11 445.458 1554.99 457.373L1539.47 490.39C1526.73 482.504 1506.96 475.733 1488.63 475.733C1437.64 475.733 1403.03 515.924 1403.03 579.184C1403.03 645.172 1442.85 684.123 1483.83 684.123C1496.59 684.123 1507.29 682.604 1517.26 677.383V591.858H1564.95V591.858ZM1656.55 478.119H1677.58C1705.74 478.119 1721.7 494.356 1721.7 523.035C1721.7 560.39 1699.07 577.077 1676.37 578.27C1671.58 578.751 1660.42 579.153 1656.55 579.494V478.119V478.119ZM1777.45 719.154L1721.25 603.835C1751.88 587.566 1769.48 554.456 1769.48 521.037C1769.48 466.886 1736.41 440.655 1683.09 440.655H1608.71V719.154H1656.55V614.138H1678.01L1722.88 719.154H1777.45V719.154ZM1856.19 608.948C1867.3 572.29 1878.44 538.513 1888.41 495.549H1889.2C1900.34 538.513 1910.26 572.29 1920.61 608.948H1856.19ZM1874.45 440.655L1778.16 719.154H1819.53L1843.82 643.142H1927.8L1949.55 719.154H2002.96L1914.2 440.655H1874.45V440.655ZM2092.43 440.655H2018.05V719.154H2065.8V614.138H2087.23C2144.15 614.138 2178.8 567.982 2178.8 521.037C2178.8 466.871 2145.75 440.655 2092.43 440.655ZM2085.74 578.286C2080.78 578.735 2069.13 579.107 2065.8 579.432V478.119H2087.23C2115.07 478.119 2131.04 494.356 2131.04 523.035C2131.04 560.39 2108.44 577.093 2085.74 578.286ZM2399.94 719.154H2352.22V585.134H2253.09V719.154H2205.88V440.655H2253.09V547.67H2352.22V441.446H2399.94V719.154ZM2445.64 440.655H2493.09V719.154H2445.64V440.655ZM2707.81 491.211C2696.25 484.038 2677.24 475.718 2658.85 475.718C2610.25 475.718 2574.97 515.908 2574.97 579.169C2574.97 645.156 2613.92 684.107 2660.09 684.107C2676.99 684.028 2693.53 679.196 2707.81 670.163L2720.98 704.807C2706.57 714.738 2681.19 723.895 2658.15 723.895C2576.18 723.895 2524.43 660.247 2524.43 578.286C2524.43 502.274 2575.73 435.868 2658.85 435.868C2683.58 435.868 2706.57 446.28 2722.98 457.373L2707.81 491.211V491.211Z" fill="#323544"/>
</svg>
