<svg width="2961" height="800" viewBox="0 0 2961 800" fill="none" xmlns="http://www.w3.org/2000/svg">
<path d="M407.03 748.434C362.501 756.254 317.188 758.598 270.314 764.842L127.342 346.096V782.814C82.8121 787.5 42.188 793.75 0 800V0H118.753L281.25 453.913V0H407.03V748.434ZM653.125 292.969C701.566 292.969 775.784 290.624 820.314 290.624V415.622C764.842 415.622 700.002 415.622 653.125 417.966V603.907C726.566 599.221 800.003 592.965 874.218 590.621V710.926L528.122 738.276V0H874.218V125H653.125V292.969ZM1339.06 125.003H1209.37V700.002C1167.19 700.002 1125 700.002 1084.38 701.56V125.003H954.694V0H1339.07L1339.06 125.003V125.003ZM1542.18 284.377H1713.28V409.375H1542.18V692.972H1419.52V0H1768.75V125H1542.18V284.377ZM1971.87 583.593C2042.97 585.151 2114.84 590.63 2184.37 594.529V717.968C2072.66 710.932 1960.94 703.91 1846.88 701.56V0H1971.87V583.593ZM2289.84 726.563C2329.68 728.91 2371.87 731.254 2412.5 735.935V0H2289.84V726.563ZM2960.16 0L2801.56 380.47L2960.16 800C2913.28 793.75 2866.4 785.156 2819.53 777.342L2729.69 546.097L2638.29 758.598C2592.97 750.779 2549.22 748.434 2503.91 742.184L2664.85 375.778L2519.53 0H2653.9L2735.93 210.157L2823.44 0H2960.16Z" fill="#323544"/>
</svg>
