<svg width="2499" height="700" viewBox="0 0 2499 700" fill="none" xmlns="http://www.w3.org/2000/svg">
<path d="M2445.92 0H1430.14C1398.59 3.52113 1381.13 22.8169 1378.03 58.169V641.831C1381.13 677.042 1398.45 696.338 1429.86 700H2446.2C2477.61 696.338 2494.93 677.042 2498.03 641.831V58.169C2494.93 22.9577 2477.47 3.52113 2445.92 0" fill="#8A8A8A"/>
<path d="M2395.07 271.831C2377.89 252.817 2354.65 240.563 2329.44 234.93C2322.11 233.099 2313.94 231.69 2304.65 231.268C2271.27 228.451 2228.59 241.549 2208.59 258.31L2213.38 121.69H2132.25V544.789H2207.61V521.409C2224.93 535.493 2252.68 551.69 2295.35 551.69H2303.38C2339.01 551.69 2369.3 537.606 2394.23 509.437C2419.15 480.986 2431.55 440.704 2431.55 388.31C2431.55 337.606 2419.44 298.873 2394.93 271.831H2395.07ZM2329.58 464.789C2317.18 480 2301.83 487.606 2283.94 487.606C2260.7 487.606 2241.97 476.901 2228.03 455.211C2217.89 440.141 2212.82 416.62 2212.82 384.789C2212.82 354.085 2219.3 331.268 2232.11 316.056C2244.79 300.986 2261.13 293.521 2280.56 293.521C2300.28 293.521 2316.62 301.127 2329.3 316.62C2341.97 332.113 2348.31 357.465 2348.31 392.394C2348.31 425.352 2341.97 449.437 2329.44 464.648L2329.58 464.789ZM2001.55 367.465C2001.55 411.127 1999.58 438.873 1995.49 450.141C1991.27 461.408 1983.8 470.845 1972.96 478.31C1961.69 486.056 1949.44 489.577 1935.63 489.577C1923.52 489.577 1913.52 486.761 1905.63 481.127C1897.75 475.493 1892.25 467.887 1889.3 458.169C1886.48 448.31 1884.79 422.113 1884.79 378.873V238.028H1803.66V432.394C1803.66 461.127 1807.32 483.662 1814.65 500C1821.97 516.338 1833.8 529.155 1850.14 538.028C1866.48 547.183 1884.93 551.69 1905.63 551.69C1908.73 551.69 1911.69 551.69 1914.79 551.409C1966.62 550 1993.66 526.479 2007.18 510.986V544.789H2082.54V238.028H2001.41L2001.55 367.465ZM1736.76 268.169C1729.3 257.324 1718.03 248.451 1702.96 241.408C1689.44 235.352 1674.37 231.972 1657.89 231.268H1657.04C1622.82 229.437 1579.15 239.437 1558.73 259.014V121.69H1477.61V544.789H1558.73V391.268C1558.73 365.493 1561.13 345.916 1566.06 332.817C1570.99 319.578 1578.73 309.718 1589.3 303.239C1599.86 296.62 1611.83 293.38 1625.35 293.38C1637.18 293.38 1647.04 295.916 1654.93 300.986C1662.54 306.056 1668.03 312.958 1671.13 321.69C1674.23 330.141 1675.77 350.704 1675.77 382.817V544.789H1756.76V364.789C1756.76 337.465 1755.35 317.183 1752.54 304.225C1749.72 290.986 1744.65 278.873 1737.04 268.31L1736.76 268.169ZM1279.72 286.761C1276.62 273.521 1270.99 261.408 1263.1 250.986C1255.07 240.423 1243.38 231.831 1227.61 225.07C1211.83 218.31 1194.93 214.93 1176.06 214.93C1141.97 212.958 1086.48 225.916 1069.86 252.535V222.113H990.563V544.648H1075.92V398.592C1075.92 362.535 1077.89 338.028 1082.25 324.507C1086.48 311.127 1094.65 300.563 1106.2 292.113C1118.17 284.225 1131.55 280.141 1146.2 280.141C1157.46 280.141 1167.32 282.958 1175.77 288.592C1183.8 294.225 1189.86 302.113 1193.38 312.535C1197.04 322.394 1199.01 344.93 1199.01 379.859V544.366H1284.23V344.225C1284.23 319.296 1282.54 300.141 1279.44 286.761H1279.72ZM873.239 216.056C847.887 219.296 823.944 239.718 813.38 252.676V222.113H734.084V544.648H819.437V445.07C819.437 390.141 821.831 354.085 826.479 336.901C831.268 319.718 837.747 307.887 846.197 301.268C854.366 294.507 864.507 291.409 876.479 291.409C888.873 291.409 902.113 295.916 916.479 305.211L942.958 230.845C924.93 220.141 906.338 214.789 886.62 214.789C882.113 214.789 877.606 215.211 873.239 215.916V216.056ZM525.352 214.789C493.662 214.789 465.07 221.831 439.437 235.634C414.085 249.718 394.085 269.859 380.282 296.197C366.197 322.958 359.155 350.282 359.155 378.732C359.155 415.775 366.197 447.183 380.282 473.099C394.085 498.732 414.507 518.169 441.408 531.69C468.169 545.07 496.338 551.69 525.915 551.69C573.803 551.69 613.239 535.634 644.789 503.803C676.338 471.972 691.972 431.127 691.972 382.254C691.972 333.944 676.479 293.944 645.211 262.254C614.225 230.563 574.225 214.789 525.493 214.789H525.352ZM581.831 456.761C566.62 473.662 548.028 482.113 525.775 482.113C503.521 482.113 484.93 473.662 469.437 456.761C454.366 439.859 446.901 415.211 446.901 383.239C446.901 351.268 454.366 326.901 469.437 309.718C484.93 292.817 503.521 284.366 525.775 284.366C548.028 284.366 566.62 292.817 581.831 309.718C596.901 326.62 604.366 350.986 604.366 382.676C604.366 415.07 596.901 439.718 581.831 456.761ZM251.127 106.197C234.507 101.69 199.014 99.4366 144.085 99.4366H0V544.507H89.8592V376.62H148.451C189.296 376.62 220.282 374.507 241.69 370.282C257.465 366.761 272.958 359.718 288.169 349.155C303.38 338.592 316.338 323.803 326.197 305.211C336.056 286.62 340.986 263.662 340.986 236.197C340.986 200.986 332.535 171.972 315.352 149.577C298.028 127.042 276.761 112.676 251.268 105.916L251.127 106.197ZM238.31 272.113C231.69 281.972 222.394 289.296 210.423 293.944C198.451 298.592 174.789 300.986 139.296 300.986H90V174.648H133.662C166.056 174.648 187.465 175.775 198.169 177.887C212.817 180.423 224.93 187.042 234.366 197.606C243.803 208.028 248.451 221.549 248.451 237.606C248.451 250.845 245.211 262.394 238.592 272.254" fill="#323544"/>
</svg>
