<svg width="1315" height="800" viewBox="0 0 1315 800" fill="none" xmlns="http://www.w3.org/2000/svg">
<path d="M640.062 416.94C641.224 417.162 642.387 417.368 643.546 417.575L640.062 416.94ZM649.564 418.524C650.917 418.726 652.27 418.905 653.627 419.084L649.564 418.524ZM659.611 419.73C660.933 419.851 662.247 419.963 663.569 420.065L659.611 419.73ZM664.984 420.162C666.1 420.244 667.216 420.31 668.332 420.368L664.984 420.162ZM669.957 420.454C671.279 420.512 672.601 420.563 673.923 420.605L669.957 420.454ZM675.237 420.621C678.19 420.699 681.145 420.702 684.098 420.629L675.237 420.621ZM685.509 420.605C686.886 420.564 688.263 420.511 689.639 420.446L685.509 420.605ZM690.937 420.384C692.131 420.317 693.305 420.244 694.491 420.162L690.937 420.384ZM695.723 420.076C697.014 419.979 698.309 419.87 699.592 419.749L695.723 420.076ZM706.213 419.01C707.209 418.893 708.196 418.765 709.18 418.609L706.213 419.01ZM887.619 85.114C886.549 84.5368 885.451 84.0122 884.33 83.5421L887.619 85.114ZM876.842 81.2349C875.466 80.9531 874.078 80.7401 872.681 80.5968L876.842 81.2349ZM1135.04 283.021L1134.29 283.126L1135.04 283.021ZM171.184 224.391C166.398 219.996 162.762 214.495 160.592 208.369C158.827 203.253 156.541 196.86 156.541 191.433C156.654 166.96 170.927 148.782 186.293 140.367C193.276 136.546 195.869 133.923 196.934 132.577C196.423 132.351 195.878 132.212 195.321 132.165C174.407 132.165 163.683 124.033 158.419 117.15C153.431 110.703 150.884 102.393 150.884 93.304C150.884 88.888 151.506 84.2658 152.731 79.5386C158.625 69.7961 164.224 72.473 167.653 77.457C169.838 80.5774 184.811 91.1991 203.26 92.8838C216.686 94.16 223.921 100.731 227.685 105.98C232.024 112.057 233.688 119.38 233.688 125.609C233.688 128.157 233.4 130.55 232.852 132.678C230.83 140.888 222.187 148.288 210.15 157.715L203.322 163.38C193.326 172.134 187.824 181.877 187.824 190.133C187.824 192.195 188.186 194.207 188.882 196.063C189.17 196.825 189.516 197.561 189.924 198.257C194.391 205.824 207.016 210.571 225.329 204.159C233.793 201.222 250.088 190.958 260.038 181.087C271.745 169.399 287.371 166.594 302.418 165.403C315.466 164.419 323.499 161.217 329.156 154.852C345.875 136.001 361.964 133.351 377.022 132.231C382.784 131.787 383.095 131.375 383.846 130.36C392.147 119.298 400.673 113.443 408.325 110.034C414.157 107.439 419.484 106.256 423.846 105.299L429.142 103.996L430.464 103.529C438.846 100.829 445.335 98.5916 462.389 87.0594L463.116 86.6003L463.119 86.5925L463.835 86.1451L463.843 86.1412L464.562 85.7171L464.574 85.7132L465.293 85.3008L465.305 85.2969L466.028 84.9156L466.051 84.9078L466.767 84.5343L466.79 84.5265L467.509 84.1763L467.54 84.1685L468.263 83.834L468.291 83.8184L469.018 83.5149L469.049 83.5032L469.772 83.2036L469.811 83.1959L470.538 82.9235L470.573 82.9041L471.292 82.6473L472.058 82.3905L472.109 82.3788L472.824 82.1493L472.871 82.1376L473.598 81.9275L473.648 81.9158L474.368 81.7174L474.422 81.7018L475.145 81.5306L475.211 81.5151L475.923 81.3517L475.981 81.3361L476.708 81.1882L476.771 81.1727L477.49 81.0404L477.556 81.0287L478.275 80.9081L478.341 80.9003L479.053 80.7953L479.127 80.7797L479.842 80.698L479.916 80.6824L480.62 80.6046L480.697 80.6007L481.409 80.5346L481.491 80.5268L482.198 80.4762L482.28 80.4684L482.976 80.4257L483.058 80.4218L483.761 80.3906L484.547 80.3673H484.628L485.328 80.3595H486.199L486.891 80.3673L486.973 80.3712H487.054C487.552 80.3829 488.05 80.414 488.547 80.4412L489.232 80.484L489.329 80.4918L490.002 80.5424L490.103 80.5502L490.775 80.6163L490.88 80.628L491.549 80.6941L491.658 80.7019L492.323 80.7836L492.428 80.7992L493.089 80.8809L493.202 80.9003L493.855 80.9976L493.964 81.017L494.621 81.1182L494.737 81.1415L495.379 81.2544L495.499 81.2738L496.137 81.3906L496.254 81.4178C497.272 81.6084 498.275 81.8341 499.259 82.0753L499.877 82.231L500.002 82.266C500.993 82.5228 501.973 82.7951 502.937 83.083L503.509 83.262L503.649 83.3048C505.562 83.9079 507.416 84.5888 509.213 85.3085L509.718 85.5186L510.379 85.791C546.849 36.2112 604.509 3.22154 670.043 0.237336V0.221773C673.269 0.0766173 676.498 0.00267517 679.728 0C681.863 0.00140595 683.998 0.0338323 686.132 0.0972687C687.193 0.132285 688.254 0.175084 689.312 0.217882H689.324C690.373 0.268462 691.435 0.319041 692.489 0.385184C755.903 4.19812 811.751 36.1567 847.72 83.939C852.856 82.1531 858.451 80.8575 864.163 80.4684L864.314 80.4607L864.855 80.4257L865.418 80.3984L865.554 80.3906L865.702 80.3867L866.254 80.3712L866.402 80.3634L866.954 80.3595L867.102 80.3556L867.666 80.3517H867.802L868.366 80.3556H868.505L869.201 80.3673L869.769 80.3906L869.894 80.3945L870.461 80.4218L870.593 80.4295L871.165 80.4684L871.274 80.4762L871.853 80.5229L871.966 80.5307L872.549 80.5891L872.654 80.6007C874.051 80.7437 875.439 80.9567 876.814 81.2388L877.425 81.3633L877.506 81.3828L878.109 81.5267L878.195 81.5423L878.801 81.6979L878.883 81.7174L879.497 81.8808L879.563 81.9002L880.193 82.0753L880.251 82.0948L880.866 82.2854L880.936 82.3049L881.562 82.5111L881.616 82.5267L882.293 82.764L882.926 82.9897L882.965 83.0091L883.595 83.2542L883.634 83.2698L884.276 83.5266L884.314 83.546C885.422 84.0129 886.519 84.5304 887.604 85.1179L887.623 85.1296L888.265 85.472L888.272 85.4797L888.914 85.8494L888.926 85.8532L889.567 86.2423L889.575 86.2462L890.209 86.647V86.6508L890.85 87.0633C902.6 95.0549 909.389 98.576 915.182 100.875C917.787 101.914 920.205 102.696 922.771 103.533L924.12 104L929.471 105.303C932.371 105.941 935.684 106.677 939.272 107.852C948.25 110.777 958.977 116.458 969.385 130.363C970.14 131.379 970.474 131.791 976.263 132.235C991.306 133.359 1007.37 136.005 1024.16 154.856C1029.77 161.221 1037.77 164.419 1050.81 165.407C1065.95 166.598 1081.52 169.399 1093.21 181.091C1103.17 190.962 1119.44 201.226 1127.93 204.163C1146.23 210.575 1158.92 205.828 1163.28 198.261C1164.24 196.666 1164.88 194.911 1165.21 193.055C1165.38 192.092 1165.47 191.115 1165.47 190.137C1165.47 181.881 1159.96 172.138 1149.99 163.384L1148.75 162.353L1143.1 157.719C1131.11 148.292 1122.46 140.892 1120.37 132.682C1119.83 130.554 1119.59 128.161 1119.59 125.613C1119.59 119.38 1121.29 112.061 1125.55 105.984C1129.34 100.735 1136.65 94.1639 1149.99 92.8877C1168.54 91.203 1183.43 80.5813 1185.61 77.4609C1189.09 72.4769 1194.64 69.8 1200.51 79.5425C1201.75 84.2697 1202.37 88.8919 1202.37 93.3079C1202.37 102.447 1199.83 110.707 1194.84 117.154C1189.54 124.037 1178.86 132.169 1157.91 132.169C1157.46 132.169 1156.84 132.375 1156.33 132.581C1157.37 133.931 1159.96 136.554 1166.96 140.37C1182.32 148.79 1196.61 166.968 1196.74 191.436C1196.74 196.864 1194.48 203.253 1192.66 208.373C1190.75 213.743 1187.73 218.648 1183.79 222.765C1183.26 223.317 1182.7 223.862 1182.12 224.395C1173.46 232.441 1159.05 238.756 1135.03 237.32C1132.5 237.165 1129.97 236.937 1127.46 236.635C1126.83 248.763 1123.51 263.178 1118.83 270.45C1117.41 272.734 1117.13 274.267 1117.13 275.018C1117.13 275.333 1117.16 275.516 1117.16 275.648C1117.31 275.698 1127.82 281.904 1127.82 281.904L1129.51 282.764C1129.51 282.764 1130.5 283.231 1130.63 283.336C1130.78 283.281 1134.26 283.126 1134.26 283.126L1134.95 283.029L1135.02 283.021C1141.59 282.394 1151.62 279.177 1155.89 291.098C1157 294.261 1157.68 297.016 1158.33 299.455C1159.63 304.443 1160.74 308.147 1165.11 311.513C1165.11 311.513 1167.26 309.661 1169.71 307.482C1171.61 305.81 1173.46 304.096 1175.28 302.342C1178.32 299.226 1183.94 300.809 1188 302.342C1192.1 303.899 1197.18 307.435 1200.77 309.482C1204.38 311.509 1206.37 314.081 1207.41 317.15C1208.49 320.212 1211 322.24 1214.83 324.267C1218.52 326.368 1223.82 333.099 1223.82 342.183C1223.82 343.576 1223.97 344.767 1224.37 346.031C1224.63 346.868 1225 347.739 1225.5 348.732C1230.66 359.147 1226.52 364.392 1223.53 366.602C1219.51 369.613 1212.42 370.858 1205.75 369.769L1205.81 371.481L1196.08 370.181C1192.3 369.711 1187.33 370.675 1184.36 371.294L1183.66 371.481C1176.73 372.858 1167.67 370.512 1162.58 362.24C1162.4 361.933 1162.21 361.626 1162.04 361.299C1159.44 356.735 1155.39 352.498 1153.42 351.327C1150.56 352.113 1146.04 353.179 1140.67 352.63C1135.69 352.128 1129.94 350.214 1124.09 345.366C1123.12 344.561 1122.14 343.67 1121.18 342.705C1112.58 334.079 1101.25 332.313 1094.12 333.406L1089.87 334.161C1081.1 335.748 1070.14 337.771 1060.02 331.593C1057.5 330.056 1053.87 328.473 1050.31 326.967C1041.12 322.963 1031.62 318.835 1030.33 310.132C1030.11 308.579 1028.43 305.743 1027.05 303.486C1025.84 301.49 1024.51 299.307 1023.49 296.969C1022.51 294.736 1021.8 292.359 1021.73 289.876C1018.73 290.65 1015.62 290.968 1012.52 290.818C1011.42 290.763 1010.33 290.655 1009.24 290.495L1005.25 289.876C998.53 288.729 984.452 286.414 979.969 288.052C971.042 291.273 942.95 292.829 935.248 291.067C935.248 291.067 932.414 290.444 929.743 289.876C927.177 292.526 924.315 295.012 921.306 297.226C926.943 297.533 931.901 296.833 935.306 297.712L942.383 299.58C944.642 298.911 950.167 298.988 953.304 299.272L961.594 299.895L971.05 300.805C975.606 301.72 980.443 303.688 979.615 312.622C979.296 315.376 977.756 319.271 975.439 321.559C974.164 322.959 969.222 330.13 968.137 332.387L967.784 333.091C965.859 337.196 963.005 340.966 954.696 340.966C953.641 340.951 952.586 340.993 951.535 341.09C951.283 341.763 950.602 343.012 950.602 343.012C948.732 347.269 946.03 353.194 940.866 356.622L939.486 357.614C935.341 360.575 928.436 365.454 917.865 361.614L914.225 360.311C905.011 356.988 891.076 352.004 884.042 348.156L883.055 347.611C876.503 344.024 875.053 343.304 872.674 343.639L871.352 343.845C866.328 344.549 856.857 345.821 850.309 334.958L849.711 334.017C818.664 376.659 772 407.182 718.142 417.147L717.905 417.197C716.07 417.532 714.219 417.843 712.368 418.135L711.68 418.236L709.149 418.609C708.165 418.757 707.178 418.89 706.182 419.014L704.378 419.24L701.532 419.547L699.561 419.753C698.278 419.874 696.983 419.983 695.692 420.08L694.468 420.162C693.282 420.244 692.108 420.321 690.914 420.384L689.615 420.454C688.239 420.52 686.87 420.57 685.486 420.613L684.083 420.637C681.129 420.71 678.175 420.707 675.222 420.629L673.9 420.613C672.577 420.57 671.255 420.52 669.934 420.461L668.316 420.372C667.201 420.31 666.085 420.251 664.969 420.166L663.55 420.072C662.229 419.971 660.91 419.859 659.592 419.738L657.64 419.535L655.054 419.255L653.612 419.088C652.254 418.921 650.9 418.733 649.549 418.524L647.912 418.283L645.019 417.831L643.53 417.582C642.367 417.376 641.205 417.174 640.046 416.948L637.538 416.446L636.255 416.186C634.541 415.812 632.814 415.442 631.111 415.03L630.66 414.925L627.982 414.271L626.605 413.917C625.007 413.505 623.417 413.061 621.831 412.618L621.263 412.45C574.038 398.817 533.684 369.057 506.479 329.527L502.898 334.982C496.413 345.845 486.961 344.569 481.872 343.868L480.55 343.662C478.178 343.327 476.677 344.047 470.188 347.634L469.146 348.179C462.136 352.027 448.255 357.011 438.99 360.334L435.343 361.637C424.779 365.477 417.851 360.591 413.784 357.638L412.357 356.645C407.19 353.222 404.515 347.296 402.617 343.036C402.617 343.036 401.995 341.787 401.692 341.114C400.638 341.017 399.581 340.975 398.523 340.989C390.292 340.989 387.357 337.219 385.463 333.114L385.129 332.41C384.013 330.153 379.133 322.983 377.784 321.582C375.502 319.298 373.88 315.4 373.624 312.645C372.768 303.712 377.671 301.743 382.185 300.829L391.645 299.918L399.95 299.296C403.037 299.012 408.566 298.934 410.821 299.603L417.905 297.736C421.276 296.856 426.284 297.557 431.871 297.249C428.901 294.997 426.091 292.542 423.461 289.9C420.759 290.468 417.952 291.09 417.952 291.09C410.226 292.853 382.185 291.296 373.313 288.075C368.803 286.437 354.736 288.748 347.982 289.9L343.931 290.518C339.797 291.154 335.578 290.943 331.528 289.9C331.314 294.985 328.561 299.603 326.201 303.509C324.829 305.766 323.091 308.602 322.881 310.155C321.667 318.858 312.052 322.987 302.892 326.99C299.334 328.496 295.757 330.079 293.218 331.616C283.172 337.795 272.165 335.772 263.366 334.184L259.105 333.429C252.017 332.336 240.671 334.102 232.059 342.728C218.89 355.875 205.787 352.984 199.819 351.35C197.844 352.521 193.773 356.758 191.195 361.322C186.219 370.364 176.712 372.932 169.551 371.504L168.831 371.317C165.892 370.699 160.981 369.734 157.221 370.205L147.431 371.504L147.536 369.792C140.837 370.882 133.722 369.633 129.686 366.625C126.72 364.415 122.563 359.171 127.812 348.755C129.029 346.257 129.445 344.522 129.445 342.207C129.445 333.118 134.698 326.391 138.384 324.29C142.248 322.263 144.791 320.236 145.826 317.174C146.84 314.104 148.831 311.532 152.447 309.505C156.024 307.459 161.113 303.922 165.192 302.366C169.263 300.833 174.889 299.249 177.957 302.366C181.048 305.377 188.128 311.532 188.128 311.532C194.625 306.513 194.003 300.728 197.37 291.114C201.58 279.192 211.654 282.41 218.194 283.036L218.945 283.141C218.945 283.141 222.471 283.297 222.576 283.352C222.759 283.246 223.746 282.78 223.746 282.78L225.383 281.92C225.383 281.92 235.943 275.714 236.048 275.663C236.095 275.535 236.095 275.348 236.095 275.033C236.095 274.282 235.838 272.749 234.411 270.465C229.715 263.19 226.394 248.778 225.792 236.651C224.096 236.853 222.459 237.02 220.85 237.149C195.274 239.203 180.076 232.729 171.184 224.391V224.391Z" fill="#9C9C9C"/>
<path d="M234.146 227.792C234.146 227.792 232.016 248.432 241.308 266.621C241.308 266.621 248.194 276.387 241.044 282.659L226.809 290.938C226.809 290.938 224.897 292.362 218.547 291.88C218.547 291.88 209.772 289.705 206.84 293.584C206.84 293.584 204.294 301.043 201.105 307.19C201.105 307.19 194.624 322.092 183.897 326.866C183.897 326.866 175.347 328.827 172.754 336.246C172.754 336.246 169.997 341.452 164.476 341.682C164.476 341.682 160.358 342.989 157.633 352.167C157.633 352.167 156.148 358.104 156.225 362.657C156.225 362.657 163.247 361.734 167.823 363.392C167.823 363.392 179.076 367.174 184.107 357.898C184.107 357.898 193.827 341.242 201.035 343.748C201.035 343.748 215.515 348.595 225.74 338.02C225.74 338.02 239.788 322.664 259.629 325.823C259.629 325.823 281.977 330.352 288.949 325.193C288.949 325.193 303.043 317.82 308.331 315.991C308.331 315.991 314.8 314.088 315.469 306.999C315.469 306.999 319.404 297.027 322.266 293.705L311.604 293.584C311.604 293.584 301.95 309.832 285.547 314.73C285.547 314.73 276.577 318.318 258.571 315.403C258.571 315.403 232.719 309.544 210.013 334.083C210.013 334.083 206.91 338.569 202.482 336.775C202.482 336.775 215.029 315.365 242.576 310.291C242.576 310.291 251.592 308.373 259.112 309.595C259.112 309.595 296.215 310.684 313.42 274.13C313.42 274.13 311.558 242.965 319.773 235.585C319.773 235.585 322.946 234.612 322.312 240.639C322.312 240.639 316.667 273.286 327.269 279.609C327.269 279.609 333.424 284.449 344.812 282.659C344.812 282.659 362.075 278.531 376.108 280.935C376.108 280.935 397.686 286.059 416.229 283.69C416.229 283.69 411.415 276.313 412.36 267.493C412.36 267.493 415.015 261.178 418.06 265.24C418.06 265.24 425.194 288.826 444.693 295.903C444.693 295.903 462.108 302.249 461.824 324.352C461.824 324.352 459.157 327.383 436.066 335.593C436.066 335.593 427.438 338.32 424.658 331.869C424.658 331.869 413.522 308.019 403.829 308.754L385.629 310.233C385.629 310.233 379.42 311.824 383.993 316.804C383.993 316.804 390.225 325.095 392.772 330.044C392.772 330.044 393.514 334.274 399.37 333.375C399.37 333.375 407.492 329.348 412.072 344.467C412.072 344.467 416.264 352.027 423.359 354.443C423.359 354.443 429.996 356.661 436.225 353.163C436.225 353.163 466.284 342.121 471.517 338.207C471.517 338.207 478.018 334.565 483.173 336.316C483.173 336.316 492.19 338.468 495.903 331.348L505.219 316.925C505.219 316.925 507.264 313.372 506.98 308.91C506.98 308.91 507.824 304.49 504.099 299.996C504.099 299.996 500.58 296.273 500.024 293.576L493.383 277.959C493.383 277.959 490.693 273.788 487.738 272.072L478.873 272.722C478.873 272.722 484.974 288.324 489.441 294.681C489.441 294.681 495.487 303.934 495.18 309.816C495.18 309.816 494.779 313.941 493.154 315.66C493.154 315.66 491.109 318.936 490.285 320.528C490.285 320.528 487.598 326.364 485.417 327.659C485.417 327.659 481.645 329.893 480.728 329.982C480.728 329.982 479.087 330.437 480.304 327.496C480.304 327.496 485.273 317.034 484.946 311.439C484.946 311.439 485.911 305.61 481.789 302.198C481.789 302.198 472.131 286.943 470.747 282.383C470.747 282.383 467.718 276.282 466.105 275.235C466.105 275.235 462.73 270.796 468.177 268.718C468.177 268.718 481.746 265.652 484.177 263.987C484.177 263.987 490.701 262.011 494.939 248.413C494.939 248.413 500.775 232.554 500.689 222.765C500.689 222.765 512.128 244.833 493.885 267.275C493.885 267.275 508.321 271.535 514.294 267.275C514.294 267.275 532.276 264.645 535.748 263.688C535.748 263.688 540.27 262.594 537.688 265.804C537.688 265.804 532.264 273.523 531.805 278.581C531.805 278.581 531.455 282.608 528.158 284.966C528.158 284.966 517.937 292.129 517.039 298.988C517.039 298.988 514.853 305.591 519.367 304.011C519.367 304.011 525.487 301.175 527.649 304.031C527.649 304.031 528.283 304.33 525.923 306.98C525.923 306.98 519.783 312.326 519.325 319.5C519.325 319.5 520.46 327.78 522.63 330.441C522.63 330.441 525.394 334.277 529.764 333.06C529.764 333.06 530.923 332.122 533.015 332.752C533.015 332.752 535.176 332.744 540.822 330.791C540.822 330.791 549.38 328.437 552.241 327.426C552.241 327.426 563.135 323.527 568.509 323.8C568.509 323.8 572.004 323.414 576.46 324.305C576.46 324.305 590.084 325.854 599.162 315.812C599.162 315.812 606.071 310.33 608.416 315.652C608.416 315.652 624.991 337.908 651.819 332.044C651.819 332.044 630.473 323.259 624.936 311.295C624.936 311.295 624.198 301.136 613.016 287.028C613.016 287.028 609.598 282.348 612.895 281.13C612.895 281.13 614.804 279.702 618.968 283.884C618.968 283.884 629.59 294.082 633.428 303.416C633.428 303.416 646.62 323.364 665.633 316.66C665.633 316.66 650.707 310.898 643.692 300.152C643.692 300.152 639.357 285.608 624.785 274.788C624.785 274.788 624.213 258.443 617.417 249.257C617.417 249.257 613.953 233.908 613.019 230.321C613.019 230.321 609.353 216.839 609.376 213.116C609.376 213.116 610.589 195.506 599.244 181.799C599.244 181.799 591.643 167.135 579.804 156.918C579.804 156.918 570.807 145.794 564.115 138.981C564.115 138.981 555.313 128.655 536.121 115.182C536.121 115.182 527.431 108.859 521.067 102.062C521.067 102.062 487.213 77.6787 462.757 97.2375C462.757 97.2375 445.867 108.735 431.761 112.295C431.761 112.295 402.772 115.672 390.412 135.807C390.412 135.807 389.354 139.526 377.671 140.942C377.671 140.942 352.005 137.841 333.109 163.1C333.109 163.1 324.33 171.675 306.95 173.761C306.95 173.761 278.606 170.858 260.154 192.604C260.154 192.604 213.59 233.25 185.825 206.89C185.825 206.89 171.439 193.261 187.886 168.582C187.886 168.582 198.318 155.984 216.113 142.822C216.113 142.822 230.55 132.643 223.932 116.82C223.932 116.82 220.437 101.529 198.8 101.124C198.8 101.124 171.649 95.8758 160.669 82.157C160.669 82.157 148.41 125.364 196.525 124.644C196.525 124.644 209.064 126.5 204.686 136.46C204.686 136.46 198.539 144.981 190.289 148.082C190.289 148.082 175.775 154.435 169.215 175.586C169.215 175.586 154.557 212.61 190.32 226.901C204.084 231.659 219.982 230.258 234.146 227.792V227.792ZM165.292 315.038C167.233 313.415 170.075 312.501 172.598 313.092C178.29 314.318 174.845 319.251 174.845 319.251C172.54 323.566 165.016 330.846 165.016 330.846C158.325 335.861 153.025 329.889 153.025 329.889C148.068 324.998 154.519 322.632 154.519 322.632C158.271 321.107 165.292 315.038 165.292 315.038V315.038ZM150.945 338.18C150.945 338.18 153.025 339.717 151.913 342.752C151.913 342.752 146.602 357.299 146.851 362.182C146.851 362.182 135.098 364.283 133.468 358.478C133.468 358.478 133.154 356.237 135.07 352.988C135.07 352.988 137.065 349.957 137.582 344.413C137.582 344.413 137.407 330.461 146.439 334.157C148.232 335.161 149.647 336.62 150.945 338.18V338.18ZM565.22 308.657C563.151 308.606 562.626 307.848 562.875 305.568C564.263 299.23 569.341 296.494 569.341 296.494C578.867 290.798 580.025 296.502 580.025 296.502C581.771 306.677 573.734 307.957 573.734 307.957C572.129 308.509 565.22 308.657 565.22 308.657V308.657ZM593.956 263.221C594.131 258.447 594.536 247.837 589.687 244.047C587.899 242.623 580.822 234.869 580.822 234.869C579.745 232.99 578.917 232.873 578.917 232.873C577.459 232.733 575.577 236.126 575.577 236.126C570.538 245.856 565.511 244.67 565.511 244.67C565.468 242.895 566.654 240.915 566.654 240.915C569.087 236.188 571.496 231.449 573.882 226.698C574.617 225.01 575.294 222.761 575.294 222.761C580.157 215.217 584.741 220.959 584.741 220.959C586.787 224.955 597.693 237.974 597.693 237.974C600.111 240.853 600.344 243.946 600.344 243.946C602.872 261.777 593.956 263.221 593.956 263.221V263.221ZM493.508 155.579C492.019 152.899 492.633 150.163 494.13 147.557C497.505 142.382 500.658 148.027 500.658 148.027C512.311 164.283 503.706 188.62 503.706 188.62C502.509 166.22 493.508 155.579 493.508 155.579V155.579ZM1119.15 227.792C1119.15 227.792 1121.28 248.432 1111.99 266.621C1111.99 266.621 1105.1 276.387 1112.25 282.659L1126.49 290.938C1126.49 290.938 1128.4 292.362 1134.75 291.88C1134.75 291.88 1143.52 289.705 1146.45 293.584C1146.45 293.584 1149 301.043 1152.19 307.19C1152.19 307.19 1158.68 322.092 1169.41 326.866C1169.41 326.866 1177.95 328.827 1180.54 336.246C1180.54 336.246 1183.3 341.452 1188.82 341.682C1188.82 341.682 1192.94 342.989 1195.66 352.167C1195.66 352.167 1197.15 358.104 1197.08 362.657C1197.08 362.657 1190.05 361.734 1185.47 363.392C1185.47 363.392 1174.22 367.174 1169.19 357.898C1169.19 357.898 1159.47 341.242 1152.26 343.748C1152.26 343.748 1137.79 348.595 1127.56 338.02C1127.56 338.02 1113.52 322.664 1093.67 325.823C1093.67 325.823 1071.33 330.352 1064.35 325.193C1064.35 325.193 1050.26 317.82 1044.97 315.991C1044.97 315.991 1038.5 314.088 1037.84 306.999C1037.84 306.999 1033.9 297.027 1031.04 293.705L1041.69 293.584C1041.69 293.584 1051.35 309.832 1067.75 314.73C1067.75 314.73 1076.73 318.318 1094.72 315.403C1094.72 315.403 1120.58 309.544 1143.29 334.083C1143.29 334.083 1146.39 338.569 1150.81 336.775C1150.81 336.775 1138.27 315.365 1110.72 310.291C1110.72 310.291 1101.71 308.373 1094.18 309.595C1094.18 309.595 1057.08 310.684 1039.87 274.13C1039.87 274.13 1041.74 242.965 1033.52 235.585C1033.52 235.585 1030.36 234.612 1030.98 240.639C1030.98 240.639 1036.62 273.286 1026.03 279.609C1026.03 279.609 1019.87 284.449 1008.48 282.659C1008.48 282.659 991.22 278.531 977.192 280.935C977.192 280.935 955.605 286.059 937.063 283.69C937.063 283.69 941.88 276.313 940.936 267.493C940.936 267.493 938.276 261.178 935.232 265.24C935.232 265.24 928.097 288.826 908.595 295.903C908.595 295.903 891.18 302.249 891.464 324.352C891.464 324.352 894.139 327.383 917.234 335.593C917.234 335.593 925.865 338.32 928.645 331.869C928.645 331.869 939.769 308.019 949.466 308.754L967.674 310.233C967.674 310.233 973.879 311.824 969.303 316.804C969.303 316.804 963.078 325.095 960.524 330.044C960.524 330.044 959.789 334.274 953.93 333.375C953.93 333.375 945.807 329.348 941.219 344.467C941.219 344.467 937.036 352.027 929.94 354.443C929.94 354.443 923.299 356.661 917.075 353.163C917.075 353.163 887.016 342.121 881.786 338.207C881.786 338.207 875.282 334.565 870.13 336.316C870.13 336.316 861.121 338.468 857.408 331.348L848.092 316.925C848.092 316.925 846.039 313.372 846.327 308.91C846.327 308.91 845.48 304.49 849.208 299.996C849.208 299.996 852.731 296.273 853.283 293.576L859.928 277.959C859.928 277.959 862.618 273.788 865.569 272.072L874.442 272.722C874.442 272.722 868.334 288.324 863.862 294.681C863.862 294.681 857.816 303.934 858.124 309.816C858.124 309.816 858.528 313.941 860.149 315.66C860.149 315.66 862.194 318.936 863.023 320.528C863.023 320.528 865.698 326.364 867.887 327.659C867.887 327.659 871.654 329.893 872.576 329.982C872.576 329.982 874.22 330.437 872.988 327.496C872.988 327.496 868.034 317.034 868.349 311.439C868.349 311.439 867.393 305.61 871.506 302.198C871.506 302.198 881.172 286.943 882.564 282.383C882.564 282.383 885.581 276.282 887.199 275.235C887.199 275.235 890.573 270.796 885.126 268.718C885.126 268.718 871.561 265.652 869.131 263.987C869.131 263.987 862.606 262.011 858.365 248.413C858.365 248.413 852.532 232.554 852.614 222.765C852.614 222.765 841.175 244.833 859.422 267.275C859.422 267.275 844.986 271.535 839.014 267.275C839.014 267.275 821.035 264.645 817.552 263.688C817.552 263.688 813.041 262.594 815.615 265.804C815.615 265.804 821.035 273.523 821.502 278.581C821.502 278.581 821.844 282.608 825.149 284.966C825.149 284.966 835.371 292.129 836.261 298.988C836.261 298.988 838.45 305.591 833.932 304.011C833.932 304.011 827.816 301.175 825.654 304.031C825.654 304.031 825.021 304.33 827.381 306.98C827.381 306.98 833.52 312.326 833.975 319.5C833.975 319.5 832.839 327.78 830.666 330.441C830.666 330.441 827.905 334.277 823.535 333.06C823.535 333.06 822.381 332.122 820.277 332.752C820.277 332.752 818.119 332.744 812.474 330.791C812.474 330.791 803.916 328.437 801.054 327.426C801.054 327.426 790.16 323.527 784.783 323.8C784.783 323.8 781.287 323.414 776.832 324.305C776.832 324.305 763.204 325.854 754.125 315.812C754.125 315.812 747.216 310.33 744.88 315.652C744.88 315.652 728.301 337.908 701.469 332.044C701.469 332.044 722.826 323.259 728.359 311.295C728.359 311.295 729.09 301.136 740.272 287.028C740.272 287.028 743.686 282.348 740.389 281.13C740.389 281.13 738.484 279.702 734.316 283.884C734.316 283.884 723.705 294.082 719.864 303.416C719.864 303.416 706.664 323.364 687.659 316.66C687.659 316.66 702.577 310.898 709.591 300.152C709.591 300.152 713.927 285.608 728.511 274.788C728.511 274.788 729.078 258.443 735.879 249.257C735.879 249.257 739.347 233.908 740.272 230.321C740.272 230.321 743.935 216.839 743.911 213.116C743.911 213.116 742.698 195.506 754.048 181.799C754.048 181.799 761.645 167.135 773.496 156.918C773.496 156.918 782.489 145.794 789.176 138.981C789.176 138.981 797.983 128.655 817.174 115.182C817.174 115.182 825.86 108.859 832.221 102.062C832.221 102.062 866.071 77.6787 890.535 97.2375C890.535 97.2375 907.424 108.735 921.538 112.295C921.538 112.295 950.52 115.672 962.872 135.807C962.872 135.807 963.93 139.526 975.613 140.942C975.613 140.942 1001.28 137.841 1020.18 163.1C1020.18 163.1 1028.96 171.675 1046.34 173.761C1046.34 173.761 1074.67 170.858 1093.12 192.604C1093.12 192.604 1139.69 233.25 1167.46 206.89C1167.46 206.89 1181.84 193.261 1165.39 168.582C1165.39 168.582 1154.97 155.984 1137.17 142.822C1137.17 142.822 1122.73 132.643 1129.35 116.82C1129.35 116.82 1132.85 101.529 1154.48 101.124C1154.48 101.124 1181.63 95.8758 1192.61 82.157C1192.61 82.157 1204.88 125.364 1156.75 124.644C1156.75 124.644 1144.21 126.5 1148.59 136.46C1148.59 136.46 1154.74 144.981 1162.99 148.082C1162.99 148.082 1177.51 154.435 1184.07 175.586C1184.07 175.586 1198.73 212.61 1162.95 226.901C1149.21 231.659 1133.31 230.258 1119.15 227.792V227.792ZM1188.01 315.038C1186.06 313.415 1183.22 312.501 1180.71 313.092C1175.01 314.318 1178.45 319.251 1178.45 319.251C1180.76 323.566 1188.29 330.846 1188.29 330.846C1194.99 335.861 1200.28 329.889 1200.28 329.889C1205.23 324.998 1198.77 322.632 1198.77 322.632C1195.03 321.107 1188.01 315.038 1188.01 315.038V315.038ZM1202.35 338.18C1202.35 338.18 1200.28 339.717 1201.38 342.752C1201.38 342.752 1206.69 357.299 1206.44 362.182C1206.44 362.182 1218.21 364.283 1219.82 358.478C1219.82 358.478 1220.14 356.237 1218.23 352.988C1218.23 352.988 1216.23 349.957 1215.71 344.413C1215.71 344.413 1215.89 330.461 1206.86 334.157C1205.06 335.161 1203.65 336.62 1202.35 338.18V338.18ZM788.072 308.657C790.145 308.606 790.677 307.848 790.421 305.568C789.029 299.23 783.959 296.494 783.959 296.494C774.433 290.798 773.27 296.502 773.27 296.502C771.532 306.677 779.565 307.957 779.565 307.957C781.171 308.509 788.072 308.657 788.072 308.657V308.657ZM759.343 263.221C759.164 258.447 758.756 247.837 763.612 244.047C765.409 242.623 772.477 234.869 772.477 234.869C773.554 232.99 774.382 232.873 774.382 232.873C775.833 232.733 777.726 236.126 777.726 236.126C782.757 245.856 787.792 244.67 787.792 244.67C787.831 242.895 786.637 240.915 786.637 240.915C784.206 236.188 781.798 231.449 779.413 226.698C778.881 225.409 778.41 224.095 778.002 222.761C773.138 215.217 768.558 220.959 768.558 220.959C766.513 224.955 755.611 237.974 755.611 237.974C754.168 239.667 753.243 241.741 752.947 243.946C750.432 261.777 759.343 263.221 759.343 263.221V263.221ZM859.788 155.579C861.277 152.899 860.662 150.163 859.166 147.557C855.791 142.382 852.645 148.027 852.645 148.027C840.989 164.283 849.593 188.62 849.593 188.62C850.783 166.22 859.788 155.579 859.788 155.579Z" fill="#323544"/>
<path d="M0 492.44V790.631H60.129V549.35H88.4575C88.4575 549.35 132.68 547.358 132.68 587.643C132.68 627.928 93.4187 626.924 93.4187 626.924H79.0056V695.561L139.146 790.639H209.703L125.725 668.714C125.725 668.714 194.8 662.746 194.8 587.651C194.8 512.567 142.618 492.452 73.053 492.452L0 492.44ZM879.117 631.916C879.117 631.916 905.447 611.419 905.447 572.578C905.447 533.717 877.242 498.685 817.187 498.685H716.611V790.635H840.492C840.492 790.635 929.284 789.627 929.284 709.334C929.288 662.723 911.205 644.872 879.117 631.916ZM830.66 739.822H776.747V549.591H805.562C805.562 549.591 844.723 546.65 844.723 580.838C844.723 615.026 813.571 612.011 813.571 612.011H795.628V663.26H830.648C839.828 663.26 869.074 667.715 869.074 701.393C869.07 735.063 830.66 739.822 830.66 739.822ZM1258.29 486.577H1314.45V790.635H1258.29V486.577ZM1161.64 486.577H1218.54V790.635H1161.64V486.577ZM946.209 612.517H1003.85V714.454C1003.85 714.454 1005.85 748.782 1038.14 748.782C1070.43 748.782 1069.95 714.454 1069.95 714.454V612.999H1128.09V717.948C1128.09 717.948 1135.55 800 1039.63 800C943.721 800 946.209 727.893 946.209 714.964V612.517V612.517ZM564.054 486.577V624.457C564.054 624.457 536.224 603.078 504.4 603.078C472.607 603.078 418.936 625.453 418.936 696.063C418.936 766.676 464.66 793.545 503.914 793.545C543.179 793.545 565.046 767.68 565.046 767.68V790.643H621.687V486.581H564.054V486.577V486.577ZM520.314 743.794C517.328 743.794 480.056 744.296 480.056 698.549C480.056 652.79 520.803 651.299 520.803 651.299C520.803 651.299 566.531 652.79 566.531 697.549C566.531 742.308 523.292 743.794 520.314 743.794ZM305.626 603.07C402.035 603.07 398.057 697.062 398.057 697.062V711.972H267.363C267.363 733.348 285.248 751.755 309.603 751.755C333.95 751.755 346.377 728.383 346.377 728.383L392.586 751.253C371.222 783.589 342.399 796.506 310.101 796.506C209.711 796.506 207.724 712.968 207.724 702.529C207.724 692.078 209.225 603.07 305.626 603.07V603.07ZM268.351 677.652H339.923C339.923 677.652 336.94 643.849 304.638 643.849C272.336 643.845 268.351 677.652 268.351 677.652Z" fill="#323544"/>
</svg>
