<svg width="2734" height="800" viewBox="0 0 2734 800" fill="none" xmlns="http://www.w3.org/2000/svg">
<path d="M697.804 385.911L800.165 376.079C787.848 166.193 613.617 0 400.403 0C348.066 0 298.215 10.0049 252.383 28.3291L420.067 413.095L490.079 406.245L543.777 310.734C543.777 310.561 619.127 339.733 697.804 385.933V385.911Z" fill="#171717"/>
<path d="M254.378 372.426C221.879 284.565 145.189 224.039 52.6822 201.717C19.167 260.234 0 327.912 0 400.086C0 522.78 55.3401 632.466 142.186 705.828C249.041 623.304 298.071 490.605 254.378 372.405V372.426Z" fill="#414141"/>
<path d="M697.802 385.911C619.125 339.733 543.775 310.41 543.775 310.41L490.099 405.921L279.543 781.503C317.726 793.517 358.242 800 400.401 800C602.616 800 769.997 650.143 797.008 455.426C767.318 429.755 732.312 406.245 697.824 385.911H697.802Z" fill="#CFCFCF"/>
<path d="M1263.44 157.55C1236.93 157.55 1218.78 167.857 1199.44 185.209V87.1914C1199.44 84.339 1198.27 83.1721 1195.42 83.1721H1164.58C1161.77 83.1721 1160.59 84.339 1160.59 87.1914V355.896C1160.59 358.749 1161.75 359.916 1164.58 359.916H1195.42C1198.27 359.916 1199.44 358.749 1199.44 355.896V262.222C1199.44 216.714 1226.6 194.695 1255.1 194.695C1281.62 194.695 1295.79 208.525 1295.79 237.372V355.896C1295.79 358.749 1296.96 359.916 1299.79 359.916H1330.62C1333.46 359.916 1334.62 358.749 1334.62 355.896V227.54C1334.62 180.044 1307.29 157.528 1263.44 157.528V157.55ZM1176.1 648.803H1144.08C1141.27 648.803 1139.75 649.149 1138.59 652.304C1130.74 675.641 1110.58 686.316 1088.07 686.316C1052.07 686.316 1028.73 662.979 1028.73 620.301C1028.73 577.624 1052.07 554.287 1088.07 554.287C1110.58 554.287 1130.74 564.961 1138.59 588.299C1139.75 591.454 1141.4 591.799 1144.08 591.799H1176.1C1177.76 591.799 1178.91 590.957 1178.91 589.466C1178.91 588.623 1178.91 587.132 1178.59 585.468C1171.09 546.788 1138.76 517.119 1088.07 517.119C1028.06 517.119 987.715 559.775 987.715 620.301C987.715 680.806 1028.06 723.483 1088.07 723.483C1138.59 723.483 1171.09 693.814 1178.61 655.135C1178.93 653.622 1178.93 651.98 1178.93 651.137C1178.93 649.473 1177.76 648.803 1176.1 648.803V648.803ZM2051.8 639.965C2053.61 640.462 2054.95 642.299 2054.45 644.287C2044.3 691.978 2004.45 722.986 1953.76 722.986C1894.92 722.986 1850.57 681.152 1850.57 619.804C1850.57 558.608 1894.74 516.601 1953.76 516.601C1962.94 516.601 1971.61 517.616 1979.95 519.626C1981.93 520.101 1983.1 522.111 1982.6 524.121L1974.44 553.12C1973.94 554.956 1971.93 556.123 1970.11 555.778C1964.93 554.459 1959.44 553.79 1953.76 553.79C1917.43 553.79 1891.74 580.282 1891.74 619.804C1891.74 659.305 1917.41 685.819 1953.76 685.819C1985.44 685.819 2008.95 665.809 2014.61 634.477C2014.95 632.467 2017.11 631.127 2019.12 631.646L2051.77 639.965H2051.8ZM1485.82 442.937H1454.98C1452.15 442.937 1450.99 444.103 1450.99 446.934V715.661C1450.99 718.319 1452.15 719.659 1454.98 719.659H1485.82C1488.67 719.659 1489.84 718.492 1489.84 715.661V446.761C1489.84 444.103 1488.65 442.937 1485.82 442.937ZM1578.02 442.937H1547.17C1544.36 442.937 1543.17 444.103 1543.17 446.934V715.661C1543.17 718.319 1544.34 719.659 1547.17 719.659H1578.02C1580.83 719.659 1582.02 718.492 1582.02 715.661V446.761C1582.02 444.103 1580.85 442.937 1578.02 442.937ZM2201.98 679.488C2201.16 679.488 2200.81 679.488 2199.64 679.812C2185.81 684.998 2175.98 686.143 2164.14 686.143C2143.63 686.143 2134.47 674.647 2134.47 653.817V558.306H2197.31C2200.16 558.306 2201.33 557.117 2201.33 554.287V525.115C2201.33 522.284 2200.16 521.117 2197.31 521.117H2134.47V446.934C2134.47 444.255 2133.3 442.937 2130.47 442.937H2099.64C2096.79 442.937 2095.62 444.103 2095.62 446.934V521.117H2060.78C2058.13 521.117 2056.79 522.284 2056.79 525.115V554.287C2056.79 556.944 2057.95 558.284 2060.78 558.284H2095.62V660.645C2095.62 700.989 2120.97 723.483 2160.47 723.483C2174.64 723.483 2190.48 721.149 2201.98 716.828C2205.15 715.661 2205.15 713.651 2205.15 710.151V683.313C2205.15 681.152 2203.99 679.488 2201.98 679.488V679.488ZM2519.73 521.096H2485.38C2482.54 521.096 2480.71 522.284 2479.89 525.115L2428.87 667.819L2377.85 525.115C2377.03 522.284 2375.02 521.117 2372.36 521.117H2338.03C2335.69 521.117 2334.52 522.284 2334.52 524.618C2334.52 525.439 2334.52 525.785 2334.85 527.276L2406.37 715.315C2407.54 717.995 2409.03 719.313 2411.04 719.313H2446.54C2448.53 719.313 2450.05 718.146 2451.21 715.315L2522.72 527.276C2523.06 525.763 2523.06 525.288 2523.06 524.618C2523.39 522.284 2522.07 521.117 2519.73 521.117V521.096ZM1000.2 87.3642C1000.2 85.2033 1002.04 83.3666 1004.22 83.3666H1035.06C1037.22 83.3666 1039.06 85.2033 1039.06 87.3642V161.547H1118.58C1120.74 161.547 1122.58 163.384 1122.58 165.545V194.717C1122.58 196.877 1120.74 198.736 1118.58 198.736H1039.06V322.77H1118.58C1120.74 322.77 1122.58 324.585 1122.58 326.746V355.918C1122.58 358.079 1120.74 359.937 1118.58 359.937H1004.22C1001.39 359.937 1000.38 358.598 1000.38 356.264L1000.23 87.3642H1000.2ZM1565.34 224.58C1565.01 223.564 1564.52 221.728 1564.17 220.906C1563.85 219.891 1563.52 218.746 1563.01 217.73L1561.49 214.229L1560.5 212.241C1560.17 211.377 1559.85 210.729 1559.5 209.886C1557 204.721 1554.17 199.903 1550.84 195.408C1533.83 171.725 1506.5 156.21 1470.67 156.21C1412.65 156.21 1370.3 199.73 1370.3 259.413C1370.3 319.097 1411.81 362.595 1471 362.595C1516.83 362.595 1549.18 343.255 1565.86 298.914C1566.68 296.58 1566.68 295.759 1566.68 294.916C1566.68 293.253 1565.84 292.086 1563.85 292.086H1530.35C1527.67 292.086 1526.34 292.41 1524.84 295.586V295.759C1523.68 298.071 1522.68 300.254 1521.34 302.242L1520.33 303.754C1519.83 304.576 1519.16 305.267 1518.66 306.088L1518.49 306.261C1508.98 318.578 1495.33 324.412 1475.99 325.255H1471.15C1468.99 325.255 1467 325.255 1464.99 325.082C1463.99 325.082 1463.15 324.931 1462.16 324.931H1461.81C1460.99 324.758 1460 324.758 1459.15 324.585C1445.82 322.424 1434.97 316.59 1426.81 307.579C1426.31 306.931 1425.64 306.412 1425.14 305.742C1425.14 305.591 1424.97 305.591 1424.97 305.418L1530.85 247.075L1563.01 229.226C1564.84 227.908 1566.18 227.389 1565.34 224.558V224.58ZM1412.98 236.4C1414.64 230.241 1416.97 224.904 1419.8 220.237C1420.3 219.394 1420.82 218.573 1421.49 217.73C1421.81 217.082 1422.31 216.563 1422.81 215.893C1423.48 214.899 1424.32 213.905 1424.97 213.084C1433.98 202.561 1446.32 196.553 1459.33 194.22C1460.84 194.068 1462.14 193.723 1463.65 193.723C1464.15 193.723 1464.49 193.55 1464.99 193.55C1465.83 193.55 1466.82 193.398 1467.65 193.398H1473.16C1474 193.398 1474.82 193.398 1475.66 193.55C1494.16 194.565 1508.16 202.064 1517.32 213.732L1411.14 272.249C1410.49 267.581 1410.14 262.741 1410.14 257.749C1410.47 249.905 1411.31 242.731 1412.98 236.4V236.4ZM2288.5 521.139H2257.66C2254.83 521.139 2253.66 522.306 2253.66 525.136V715.683C2253.66 718.34 2254.83 719.68 2257.66 719.68H2288.5C2291.33 719.68 2292.5 718.513 2292.5 715.683V525.115C2292.5 522.284 2291.33 521.117 2288.5 521.117V521.139ZM2272.01 440.106C2286.66 440.106 2297.83 450.953 2297.83 465.604C2297.83 479.952 2286.66 490.8 2272.01 490.8C2257.66 490.8 2246.84 479.952 2246.84 465.626C2246.84 450.932 2257.66 440.127 2272.01 440.127V440.106ZM2732.6 584.971C2732.28 583.977 2731.78 582.162 2731.43 581.298C2731.11 580.304 2730.76 579.137 2730.27 578.143L2728.78 574.642L2727.76 572.654C2727.44 571.811 2727.11 571.141 2726.77 570.32C2724.26 565.134 2721.43 560.315 2718.1 555.799C2701.1 532.138 2673.76 516.622 2637.91 516.622C2579.91 516.622 2537.56 560.143 2537.56 619.826C2537.56 679.509 2579.07 723.008 2638.26 723.008C2684.09 723.008 2716.44 703.668 2733.1 659.327C2733.94 656.993 2733.94 656.172 2733.94 655.329C2733.94 653.665 2733.1 652.498 2731.11 652.498H2697.6C2694.94 652.498 2693.6 652.823 2692.08 655.999V656.172C2690.92 658.506 2689.92 660.667 2688.58 662.655L2687.59 664.167C2687.09 664.988 2686.42 665.68 2685.93 666.501L2685.75 666.674C2676.27 678.991 2662.59 684.825 2643.25 685.69H2638.41C2636.25 685.69 2634.24 685.69 2632.25 685.495C2631.26 685.495 2630.41 685.344 2629.42 685.344H2629.07C2628.25 685.171 2627.24 685.171 2626.42 684.998C2613.08 682.837 2602.24 677.003 2594.07 667.992C2593.57 667.344 2592.9 666.825 2592.4 666.177C2592.4 666.004 2592.23 666.004 2592.23 665.831L2698.09 607.487L2730.27 589.639C2732.28 588.32 2733.44 587.823 2732.6 584.971V584.971ZM2580.24 596.64C2581.9 590.481 2584.24 585.144 2587.07 580.476C2587.56 579.655 2588.08 578.813 2588.73 577.97C2589.08 577.322 2589.57 576.803 2590.07 576.155C2590.74 575.139 2591.58 574.145 2592.23 573.302C2601.24 562.8 2613.58 556.815 2626.59 554.481C2628.08 554.308 2629.42 553.984 2630.91 553.984C2631.41 553.984 2631.75 553.811 2632.25 553.811C2633.07 553.811 2634.09 553.638 2634.91 553.638H2640.42C2641.24 553.638 2642.08 553.638 2642.93 553.811C2661.42 554.805 2675.42 562.303 2684.59 573.972L2578.4 632.489C2577.73 627.821 2577.41 622.981 2577.41 617.989C2577.73 610.318 2578.57 603.144 2580.24 596.64V596.64ZM1720.38 517.119C1662.36 517.119 1620.03 560.64 1620.03 620.323C1620.03 680.006 1661.52 723.505 1720.73 723.505C1765.89 723.505 1797.89 704.684 1814.73 662.006C1815.4 660.494 1816.07 656.82 1812.07 656.82H1777.88C1774.88 656.82 1773.89 658.333 1773.39 659.327C1763.38 678.494 1746.72 686.511 1720.88 686.511C1687.71 686.511 1665.54 666.328 1661.2 633.159H1816.56C1819.39 633.159 1820.56 631.992 1820.56 629.161V621.663C1820.41 564.983 1783.22 517.141 1720.38 517.141V517.119ZM1662.69 597.31C1670.53 567.317 1695.88 554.308 1720.38 554.308C1748.39 554.308 1771.38 568.981 1778.08 597.31H1662.69ZM1312.62 517.141C1253.78 517.141 1209.42 558.976 1209.42 620.323C1209.42 681.497 1253.61 723.505 1312.62 723.505C1371.47 723.505 1415.81 681.67 1415.81 620.323C1415.63 559.149 1371.47 517.141 1312.62 517.141V517.141ZM1312.62 686.338C1276.28 686.338 1250.61 659.824 1250.61 620.323C1250.61 580.822 1276.28 554.308 1312.62 554.308C1348.97 554.308 1374.64 580.822 1374.64 620.323C1374.64 659.824 1348.97 686.338 1312.62 686.338V686.338Z" fill="#323544"/>
</svg>
