<svg width="658" height="800" viewBox="0 0 658 800" fill="none" xmlns="http://www.w3.org/2000/svg">
<path fill-rule="evenodd" clip-rule="evenodd" d="M558.088 267.522C565.788 224.392 537.035 190.5 503.649 165.854C456.926 131.453 404.045 110.914 349.614 94.9953V663.931C373.746 642.882 397.883 619.26 420.983 595.123C470.279 540.696 515.982 485.242 534.975 418.486C542.675 388.195 538.573 353.789 512.895 333.25C534.98 315.79 555 294.223 558.088 267.522V267.522ZM464.116 464.185C447.17 494.993 424.066 523.237 396.842 549.42L396.332 386.645C414.82 373.296 433.813 361.485 456.926 359.43C466.172 359.43 474.386 362.509 480.544 369.699C501.092 402.049 476.951 435.941 464.116 464.185V464.185ZM510.847 254.683C506.222 280.357 477.979 295.247 457.954 306.03C437.929 316.3 417.385 324.514 396.332 332.214V165.85C428.691 175.606 457.954 192.038 485.679 211.553C498.522 222.337 515.982 235.685 510.847 254.683V254.683ZM307.508 659.82V92.9355L261.809 116.558V420.541C259.758 429.265 265.916 442.618 256.16 446.725C253.591 447.239 251.54 446.215 250.512 444.164C231 370.731 222.782 293.2 219.189 213.609L217.648 144.287L174.004 176.638V195.121C176.569 268.554 181.708 340.436 195.571 409.244L178.115 428.759C171.439 419.518 167.332 409.758 162.707 400.002C140.63 341.468 132.412 277.282 129.333 211.044L91.334 239.287C94.9313 339.931 113.929 434.922 175.032 510.402C186.843 497.053 198.654 483.186 210.466 470.351C216.628 497.567 225.356 523.755 235.626 549.424C252.563 588.961 271.565 629.011 307.508 659.82V659.82Z" fill="#323544"/>
<path fill-rule="evenodd" clip-rule="evenodd" d="M657.18 167.392L588.887 150.45L576.562 104.237L506.73 87.8049L492.358 37.4851L327.532 0L165.785 37.4808L151.408 87.8007L81.5727 104.233C76.9518 120.147 72.8448 135.555 68.7336 150.96L0.439974 167.387C-4.69479 312.703 35.3598 440.558 107.76 554.551C160.65 636.193 240.241 722.46 327.532 765.076C386.575 736.833 438.959 689.592 486.196 636.703C600.702 504.235 663.343 349.164 657.18 167.392V167.392ZM455.897 606.934C418.416 649.04 376.306 690.628 329.069 714.764C283.884 692.17 244.348 653.147 208.404 613.607C114.951 504.235 52.8196 382.028 42.5501 238.769C41.5223 226.957 41.0126 215.664 41.5223 203.339L99.5465 189.991L112.895 142.236L184.272 125.294L184.786 123.753L197.621 74.4562L327.018 44.1615L460.522 74.4562L473.357 124.776L545.761 142.236L558.087 189.991L616.62 203.339C615.075 359.434 552.943 490.372 455.897 606.934V606.934ZM477.468 759.436C485.168 758.922 490.303 754.815 490.303 746.083C490.303 736.331 484.14 731.706 472.325 731.706H453.845V780.998H462.055V759.95H469.755L482.598 780.998H491.326L477.468 759.436V759.436ZM462.059 753.273V738.383H471.815C476.44 738.383 482.084 739.406 482.084 745.569C482.084 752.245 476.95 753.273 470.787 753.273H462.059Z" fill="#323544"/>
<path fill-rule="evenodd" clip-rule="evenodd" d="M471.297 715.792C448.197 715.792 429.199 734.79 429.199 757.894C429.199 780.998 448.197 800 471.297 800C494.405 800 513.411 780.998 513.411 757.894C513.411 734.79 494.41 715.792 471.297 715.792ZM471.297 795.893C466.304 795.904 461.358 794.929 456.743 793.023C452.128 791.117 447.935 788.319 444.404 784.788C440.874 781.257 438.076 777.064 436.17 772.448C434.265 767.833 433.29 762.887 433.302 757.894C433.29 752.901 434.265 747.955 436.17 743.34C438.076 738.725 440.874 734.531 444.404 731C447.935 727.469 452.128 724.671 456.743 722.765C461.358 720.859 466.304 719.884 471.297 719.895C492.358 719.895 509.296 736.837 509.296 757.894C509.309 762.888 508.334 767.835 506.429 772.451C504.524 777.067 501.726 781.261 498.195 784.792C494.664 788.323 490.469 791.121 485.853 793.027C481.237 794.932 476.29 795.906 471.297 795.893V795.893Z" fill="#323544"/>
</svg>
